<?xml version="1.0" encoding="UTF-8"?>
<svg width="298px" height="162px" viewBox="0 0 298 162" version="1.1" xmlns="http://www.w3.org/2000/svg" xmlns:xlink="http://www.w3.org/1999/xlink">
    <!-- Generator: Sketch 49 (51002) - http://www.bohemiancoding.com/sketch -->
    <title>confirm-img</title>
    <desc>Created with Sketch.</desc>
    <defs>
        <path d="M87.8092035,57 L87.8092035,42.0933288 C87.8092035,42.0933288 32.5171681,57 0.587964602,0 C0.587964602,0 15.383646,57 87.8092035,57" id="path-1"></path>
        <path d="M102.810263,76 L102.810263,66.6938776 C102.810263,66.6938776 40.0809398,73.6734694 0.583924812,0 C0.583924812,0 23.0433459,73.6734694 102.810263,76" id="path-3"></path>
        <path d="M114.809628,98 L114.809628,64.5555556 C114.809628,64.5555556 46.430473,70.7777778 0.586655405,0 C0.586655405,0 34.7758446,95.6666667 114.809628,98" id="path-5"></path>
    </defs>
    <g id="Welcome" stroke="none" stroke-width="1" fill="none" fill-rule="evenodd">
        <g id="confirmation-email_payor" transform="translate(-163.000000, -203.000000)">
            <g id="confirm-img" transform="translate(163.000000, 191.000000)">
                <g id="Group-3" transform="translate(47.000000, 99.000000)">
                    <mask id="mask-2" fill="white">
                        <use xlink:href="#path-1"></use>
                    </mask>
                    <g id="Clip-2"></g>
                    <path d="M87.8092035,57 L87.8092035,42.0933288 C87.8092035,42.0933288 32.5171681,57 0.587964602,0 C0.587964602,0 15.383646,57 87.8092035,57" id="Fill-1" mask="url(#mask-2)"></path>
                </g>
                <g id="Group-6" transform="translate(35.000000, 34.000000)">
                    <mask id="mask-4" fill="white">
                        <use xlink:href="#path-3"></use>
                    </mask>
                    <g id="Clip-5"></g>
                    <path d="M102.810263,76 L102.810263,66.6938776 C102.810263,66.6938776 40.0809398,73.6734694 0.583924812,0 C0.583924812,0 23.0433459,73.6734694 102.810263,76" id="Fill-4" mask="url(#mask-4)"></path>
                </g>
                <g id="Group-9" transform="translate(23.000000, 0.000000)">
                    <mask id="mask-6" fill="white">
                        <use xlink:href="#path-5"></use>
                    </mask>
                    <g id="Clip-8"></g>
                    <path d="M114.809628,98 L114.809628,64.5555556 C114.809628,64.5555556 46.430473,70.7777778 0.586655405,0 C0.586655405,0 34.7758446,95.6666667 114.809628,98" id="Fill-7" mask="url(#mask-6)"></path>
                </g>
                <g id="Group-44" transform="translate(0.000000, 12.000000)">
                    <path d="M121.124428,145.368258 C115.777501,145.368258 111.427787,141.023713 111.427787,135.682364 L111.427787,60.2337703 C111.427787,54.8931962 115.777501,50.5478756 121.124428,50.5478756 L251.305418,50.5478756 C256.652345,50.5478756 261.002058,54.8931962 261.002058,60.2337703 L261.002058,135.682364 C261.002058,141.023713 256.652345,145.368258 251.305418,145.368258 L121.124428,145.368258 Z" id="Fill-10" fill="#FFFFFF"></path>
                    <path d="M251.305418,48.2229043 L121.124428,48.2229043 C114.493928,48.2229043 109.099662,53.6107608 109.099662,60.2341579 L109.099662,135.682751 C109.099662,142.305373 114.493928,147.69323 121.124428,147.69323 L251.305418,147.69323 C257.935918,147.69323 263.330959,142.305373 263.330959,135.682751 L263.330959,60.2341579 C263.330959,53.6107608 257.935918,48.2229043 251.305418,48.2229043 M251.305418,52.873622 C255.37498,52.873622 258.674709,56.1686555 258.674709,60.2341579 L258.674709,135.682751 C258.674709,139.747478 255.37498,143.042512 251.305418,143.042512 L121.124428,143.042512 C117.054866,143.042512 113.755912,139.747478 113.755912,135.682751 L113.755912,60.2341579 C113.755912,56.1686555 117.054866,52.873622 121.124428,52.873622 L251.305418,52.873622" id="Fill-12" fill="#009245"></path>
                    <g id="Group-17" transform="translate(123.390625, 97.665072)">
                        <path d="M37.3071943,0.655363636 L0.234907813,37.6836029" id="Fill-14" fill="#FFFFFF"></path>
                        <path d="M37.3071943,0.655363636 L0.234907813,37.6836029" id="Stroke-16" stroke="#CFCFCF" stroke-width="2.591" stroke-linecap="round" stroke-linejoin="round"></path>
                    </g>
                    <g id="Group-21" transform="translate(211.083333, 97.665072)">
                        <path d="M0.649003646,0.655363636 L37.7212901,37.6836029" id="Fill-18" fill="#FFFFFF"></path>
                        <path d="M0.649003646,0.655363636 L37.7212901,37.6836029" id="Stroke-20" stroke="#CFCFCF" stroke-width="2.591" stroke-linecap="round" stroke-linejoin="round"></path>
                    </g>
                    <path d="M121.699863,62.0136 L175.560259,124.184394 C181.420149,130.948863 191.009696,130.948863 196.870363,124.184394 L250.730759,62.0136 L192.131077,116.175858 C188.791769,119.26161 183.638077,119.26161 180.299545,116.175858 L121.699863,62.0136 Z" id="Fill-22" fill="#CFCFCF"></path>
                    <g id="Group-27" transform="translate(121.062500, 62.009569)">
                        <path d="M129.667871,0.00403062201 L71.0681885,54.166289 C67.7296573,57.2520402 62.5751885,57.2520402 59.2366573,54.166289 L0.636975,0.00403062201" id="Fill-24" fill="#FFFFFF"></path>
                        <path d="M129.667871,0.00403062201 L71.0681885,54.166289 C67.7296573,57.2520402 62.5751885,57.2520402 59.2366573,54.166289 L0.636975,0.00403062201" id="Stroke-26" stroke="#CFCFCF" stroke-width="2.591" stroke-linecap="round" stroke-linejoin="round"></path>
                    </g>
                    <path d="M146.047627,13.4891742 L146.737528,20.9582268 L153.51858,24.180399 C154.543731,24.6671742 154.515794,26.1344756 153.472794,26.5824947 L146.574559,29.5450019 L145.602179,36.9830498 C145.454731,38.1077483 144.04932,38.5340641 143.30044,37.6822077 L138.347742,32.0439876 L130.965257,33.4190498 C129.848533,33.6267818 129.00808,32.4237962 129.588559,31.4486957 L133.426085,25.0012507 L129.835341,18.4135091 C129.292887,17.4174804 130.178351,16.2470498 131.285762,16.4966383 L138.61082,18.1499684 L143.774601,12.703978 C144.555299,11.8800258 145.943637,12.3598249 146.047627,13.4891742" id="Fill-28" fill="#FFB01D"></path>
                    <path d="M3.14071823,0.795427751 L6.57004635,2.63788708 L9.90702552,0.634202871 C10.4114526,0.3311311 11.0377182,0.763647847 10.9329526,1.34188708 L10.2383953,5.16865263 L13.1772651,7.71957129 C13.621937,8.10480574 13.4038693,8.8341933 12.8202859,8.9132555 L8.96180677,9.43568612 L7.44154115,13.0159636 C7.21183281,13.5569971 6.45053594,13.5748249 6.19444219,13.0454182 L4.50499948,9.54187751 L0.625567187,9.20392536 C0.0396557292,9.15276746 -0.213333854,8.4350067 0.212713021,8.02884402 L3.0266401,5.34072919 L2.14971302,1.55116938 C2.0170099,0.978355981 2.6223224,0.517159809 3.14071823,0.795427751" id="Fill-30" fill="#FFB01D"></path>
                    <path d="M76.3008823,26.270199 L80.6296427,28.6195866 L84.862174,26.1019981 C85.5024083,25.7214144 86.2924187,26.2717493 86.1566115,27.0026871 L85.2571792,31.8402086 L88.9627781,35.0833091 C89.5230802,35.5731847 89.2429292,36.4948019 88.5049135,36.5916919 L83.6205073,37.2319407 L81.677299,41.7539885 C81.3839552,42.437644 80.4208875,42.4562469 80.1003823,41.7849933 L77.9802365,37.3427828 L73.0748771,36.8947636 C72.3329812,36.8273282 72.0171323,35.9181129 72.5580333,35.4057589 L76.1324812,32.0200364 L75.0429187,27.2212708 C74.8783979,26.4957589 75.6466792,25.9151943 76.3008823,26.270199" id="Fill-32" fill="#FFB01D"></path>
                    <path d="M12.1883552,57.1676297 L13.3368969,59.7022708 L16.1050375,60.0099933 C16.5241,60.0565005 16.692501,60.5742804 16.3813083,60.857199 L14.3224698,62.7322134 L14.8851,65.4567589 C14.9696885,65.8683474 14.5288969,66.1884718 14.1633812,65.9807397 L11.7421312,64.6041273 L9.32165729,65.9807397 C8.95536562,66.1884718 8.51457396,65.8683474 8.59993854,65.4567589 L9.16179271,62.7322134 L7.10373021,60.857199 C6.7925375,60.5742804 6.96093854,60.0565005 7.379225,60.0099933 L10.1473656,59.7022708 L11.2959073,57.1676297 C11.4697406,56.7847206 12.0145219,56.7847206 12.1883552,57.1676297" id="Fill-34" fill="#FFB01D"></path>
                    <path d="M76.0954641,100.916776 L74.7203182,103.3367 L76.1008964,105.752747 C76.3096516,106.117829 75.9899224,106.558872 75.5778443,106.474384 L72.8485057,105.915522 L70.9743651,107.97424 C70.6911099,108.285063 70.1727141,108.117637 70.1261516,107.699848 L69.8141828,104.934996 L67.2757505,103.79092 C66.8916099,103.617293 66.8908339,103.073159 67.2741984,102.899532 L69.8110786,101.749255 L70.116063,98.9836278 C70.1618495,98.5658383 70.6794693,98.3968622 70.9635005,98.7076852 L72.8430734,100.760977 L75.5700839,100.19669 C75.982938,100.111427 76.3034432,100.55092 76.0954641,100.916776" id="Fill-36" fill="#FFB01D"></path>
                    <path d="M41.2941083,64.9209187 L42.5101656,68.8864306 L46.5440302,69.8669569 C47.153999,70.0150048 47.304551,70.8126029 46.7908115,71.1722584 L43.3909729,73.5526507 L43.7037177,77.6879139 C43.7510562,78.3134354 43.03865,78.7025455 42.536551,78.3250622 L39.219749,75.8315024 L35.3783427,77.4065455 C34.7978635,77.6445072 34.2072958,77.0879713 34.4113948,76.4950048 L35.7609312,72.5728995 L33.074275,69.4111866 C32.6684052,68.9329378 33.0152958,68.1996746 33.6431135,68.2105263 L37.7949365,68.2810622 L39.9748375,64.7519426 C40.3046552,64.2178852 41.1101865,64.3217512 41.2941083,64.9209187" id="Fill-38" fill="#FFB01D"></path>
                    <path d="M297.809559,130.220096 C297.809559,112.668287 283.564539,98.4401914 265.991851,98.4401914 C248.419164,98.4401914 234.174143,112.668287 234.174143,130.220096 C234.174143,147.771904 248.419164,162 265.991851,162 C283.564539,162 297.809559,147.771904 297.809559,130.220096" id="Fill-40" fill="#93C516"></path>
                    <polyline id="Stroke-42" stroke="#FFFFFF" stroke-width="8" stroke-linecap="round" stroke-linejoin="round" points="251.673882 132.548167 261.256445 140.068378 281.105262 117.508522"></polyline>
                </g>
            </g>
        </g>
    </g>
</svg>