<?xml version="1.0" encoding="UTF-8"?>
<svg width="80px" height="77px" viewBox="0 0 80 77" version="1.1" xmlns="http://www.w3.org/2000/svg" xmlns:xlink="http://www.w3.org/1999/xlink">
    <!-- Generator: Sketch 49 (51002) - http://www.bohemiancoding.com/sketch -->
    <title>dollar</title>
    <desc>Created with Sketch.</desc>
    <defs></defs>
    <g id="Welcome" stroke="none" stroke-width="1" fill="none" fill-rule="evenodd">
        <g id="---------" transform="translate(-105.000000, -330.000000)">
            <g id="dollar" transform="translate(105.000000, 330.000000)">
                <path d="M66.9243,0 L3.6503,0 C1.6423,0 0.0003,1.643 0.0003,3.65 C0.0003,5.658 1.6423,7.301 3.6503,7.301 L3.6503,3.65 L66.9243,3.65 L66.9243,7.301 C68.9323,7.301 70.5743,5.658 70.5743,3.65 C70.5743,1.643 68.9323,0 66.9243,0" id="Fill-1" fill="#474D59"></path>
                <polygon id="Fill-3" fill="#FFFFFF" points="6.084 63.057 13.385 70.358 20.686 63.057 27.986 70.358 35.287 63.057 42.588 70.358 49.889 63.057 57.19 70.358 64.491 63.057 66.924 65.491 66.924 4.65 3.65 4.65 3.65 65.491"></polygon>
                <polygon id="Stroke-5" stroke="#CFCFCF" stroke-width="2.591" stroke-linecap="round" stroke-linejoin="round" points="6.084 63.057 13.385 70.358 20.686 63.057 27.986 70.358 35.287 63.057 42.588 70.358 49.889 63.057 57.19 70.358 64.491 63.057 66.924 65.491 66.924 4.65 3.65 4.65 3.65 65.491"></polygon>
                <path d="M52.3226,50.889 L34.0706,50.889 C33.3986,50.889 32.8536,50.345 32.8536,49.672 C32.8536,48.999 33.3986,48.455 34.0706,48.455 L52.3226,48.455 C52.9946,48.455 53.5396,48.999 53.5396,49.672 C53.5396,50.345 52.9946,50.889 52.3226,50.889" id="Fill-7" fill="#E6E7E8"></path>
                <path d="M58.4067,50.889 C58.0907,50.889 57.7737,50.755 57.5427,50.536 C57.3237,50.305 57.1897,49.989 57.1897,49.672 C57.1897,49.342 57.3237,49.038 57.5427,48.808 C58.0047,48.358 58.8087,48.358 59.2707,48.808 C59.4897,49.038 59.6237,49.342 59.6237,49.672 C59.6237,49.989 59.4897,50.305 59.2707,50.536 C59.0397,50.755 58.7227,50.889 58.4067,50.889" id="Fill-9" fill="#E6E7E8"></path>
                <path d="M58.4067,33.8537 L40.1547,33.8537 C39.4827,33.8537 38.9377,33.3097 38.9377,32.6367 C38.9377,31.9637 39.4827,31.4197 40.1547,31.4197 L58.4067,31.4197 C59.0787,31.4197 59.6237,31.9637 59.6237,32.6367 C59.6237,33.3097 59.0787,33.8537 58.4067,33.8537" id="Fill-11" fill="#E6E7E8"></path>
                <path d="M58.4067,42.3714 L46.2387,42.3714 C45.5667,42.3714 45.0217,41.8274 45.0217,41.1544 C45.0217,40.4814 45.5667,39.9374 46.2387,39.9374 L58.4067,39.9374 C59.0787,39.9374 59.6237,40.4814 59.6237,41.1544 C59.6237,41.8274 59.0787,42.3714 58.4067,42.3714" id="Fill-13" fill="#E6E7E8"></path>
                <path d="M36.5042,42.3714 L34.0702,42.3714 C33.3992,42.3714 32.8542,41.8274 32.8542,41.1544 C32.8542,40.4814 33.3992,39.9374 34.0702,39.9374 L36.5042,39.9374 C37.1762,39.9374 37.7212,40.4814 37.7212,41.1544 C37.7212,41.8274 37.1762,42.3714 36.5042,42.3714" id="Fill-15" fill="#E6E7E8"></path>
                <path d="M52.3226,25.3361 L34.0706,25.3361 C33.3986,25.3361 32.8536,24.7921 32.8536,24.1191 C32.8536,23.4461 33.3986,22.9021 34.0706,22.9021 L52.3226,22.9021 C52.9946,22.9021 53.5396,23.4461 53.5396,24.1191 C53.5396,24.7921 52.9946,25.3361 52.3226,25.3361" id="Fill-17" fill="#E6E7E8"></path>
                <path d="M58.4067,25.3361 C58.0907,25.3361 57.7737,25.2021 57.5427,24.9831 C57.3237,24.7521 57.1897,24.4361 57.1897,24.1191 C57.1897,23.7891 57.3237,23.4851 57.5427,23.2551 C57.9927,22.8051 58.8207,22.8051 59.2707,23.2551 C59.4897,23.4851 59.6237,23.8031 59.6237,24.1191 C59.6237,24.4361 59.4897,24.7521 59.2707,24.9831 C59.0397,25.2021 58.7357,25.3361 58.4067,25.3361" id="Fill-19" fill="#E6E7E8"></path>
                <path d="M35.2874,33.8537 C34.9714,33.8537 34.6544,33.7197 34.4234,33.5007 C34.2044,33.2697 34.0704,32.9657 34.0704,32.6367 C34.0704,32.3067 34.2044,32.0027 34.4234,31.7727 C34.8854,31.3227 35.7014,31.3227 36.1514,31.7727 C36.3704,32.0027 36.5044,32.3067 36.5044,32.6367 C36.5044,32.9657 36.3704,33.2697 36.1514,33.5007 C35.9204,33.7197 35.6034,33.8537 35.2874,33.8537" id="Fill-21" fill="#E6E7E8"></path>
                <path d="M41.3714,42.3714 C41.0554,42.3714 40.7384,42.2374 40.5074,42.0184 C40.2884,41.7874 40.1544,41.4714 40.1544,41.1544 C40.1544,40.8384 40.2884,40.5204 40.5074,40.2904 C40.9694,39.8404 41.7854,39.8404 42.2354,40.2904 C42.4544,40.5094 42.5884,40.8244 42.5884,41.1544 C42.5884,41.4834 42.4544,41.7874 42.2354,42.0184 C42.0044,42.2374 41.6874,42.3714 41.3714,42.3714" id="Fill-23" fill="#E6E7E8"></path>
                <path d="M15.8173,31.7705 C15.3913,31.4395 15.1163,30.9415 15.0603,30.4075 C15.0093,29.9105 15.1513,29.4335 15.4633,29.0645 C15.8863,28.5645 16.4343,28.2135 17.0353,27.9995 L17.0353,32.7175 L15.8173,31.7705 Z M20.6873,38.6415 C21.1113,38.9715 21.3883,39.4695 21.4433,40.0025 C21.4963,40.5015 21.3523,40.9795 21.0413,41.3465 C20.6173,41.8465 20.0703,42.1975 19.4693,42.4115 L19.4693,37.6925 L20.6873,38.6415 Z M21.9023,31.4205 C21.9023,32.0925 22.4473,32.6365 23.1193,32.6365 C23.7913,32.6365 24.3363,32.0925 24.3363,31.4205 C24.3363,28.4825 22.2423,26.0245 19.4693,25.4585 L19.4693,24.1195 C19.4693,23.4465 18.9233,22.9025 18.2523,22.9025 C17.5803,22.9025 17.0353,23.4465 17.0353,24.1195 L17.0353,25.4625 C15.7073,25.7325 14.4983,26.4375 13.6063,27.4925 C12.8633,28.3705 12.5183,29.4955 12.6403,30.6595 C12.7643,31.8505 13.3773,32.9555 14.3233,33.6905 L17.0353,35.8005 L17.0353,42.4175 C15.6223,41.9135 14.6013,40.5755 14.6013,38.9915 C14.6013,38.3185 14.0563,37.7745 13.3853,37.7745 C12.7133,37.7745 12.1683,38.3185 12.1683,38.9915 C12.1683,41.9285 14.2623,44.3865 17.0353,44.9525 L17.0353,46.0215 C17.0353,46.6945 17.5803,47.2385 18.2523,47.2385 C18.9233,47.2385 19.4693,46.6945 19.4693,46.0215 L19.4693,44.9485 C20.7963,44.6785 22.0063,43.9735 22.8993,42.9185 C23.6423,42.0375 23.9853,40.9135 23.8643,39.7495 C23.7383,38.5595 23.1263,37.4555 22.1813,36.7215 L19.4693,34.6115 L19.4693,27.9945 C20.8813,28.4975 21.9023,29.8355 21.9023,31.4205 Z" id="Fill-25" fill="#009245"></path>
                <path d="M10.7444,13.168 C10.7444,12.499 11.2924,11.951 11.9614,11.951 C12.6424,11.951 13.1784,12.499 13.1784,13.168 C13.1784,13.837 12.6424,14.385 11.9614,14.385 C11.2924,14.385 10.7444,13.837 10.7444,13.168 M15.4174,13.168 C15.4174,12.499 15.9524,11.951 16.6334,11.951 C17.3034,11.951 17.8504,12.499 17.8504,13.168 C17.8504,13.837 17.3034,14.385 16.6334,14.385 C15.9524,14.385 15.4174,13.837 15.4174,13.168 M20.0774,13.168 C20.0774,12.499 20.6244,11.951 21.2944,11.951 C21.9634,11.951 22.5114,12.499 22.5114,13.168 C22.5114,13.837 21.9634,14.385 21.2944,14.385 C20.6244,14.385 20.0774,13.837 20.0774,13.168 M24.7374,13.168 C24.7374,12.499 25.2854,11.951 25.9544,11.951 C26.6354,11.951 27.1714,12.499 27.1714,13.168 C27.1714,13.837 26.6354,14.385 25.9544,14.385 C25.2854,14.385 24.7374,13.837 24.7374,13.168 M29.4104,13.168 C29.4104,12.499 29.9454,11.951 30.6274,11.951 C31.2964,11.951 31.8434,12.499 31.8434,13.168 C31.8434,13.837 31.2964,14.385 30.6274,14.385 C29.9454,14.385 29.4104,13.837 29.4104,13.168 M34.0704,13.168 C34.0704,12.499 34.6184,11.951 35.2874,11.951 C35.9564,11.951 36.5044,12.499 36.5044,13.168 C36.5044,13.837 35.9564,14.385 35.2874,14.385 C34.6184,14.385 34.0704,13.837 34.0704,13.168 M38.7314,13.168 C38.7314,12.499 39.2784,11.951 39.9474,11.951 C40.6294,11.951 41.1644,12.499 41.1644,13.168 C41.1644,13.837 40.6294,14.385 39.9474,14.385 C39.2784,14.385 38.7314,13.837 38.7314,13.168 M43.4034,13.168 C43.4034,12.499 43.9384,11.951 44.6204,11.951 C45.2894,11.951 45.8374,12.499 45.8374,13.168 C45.8374,13.837 45.2894,14.385 44.6204,14.385 C43.9384,14.385 43.4034,13.837 43.4034,13.168 M48.0634,13.168 C48.0634,12.499 48.6114,11.951 49.2804,11.951 C49.9494,11.951 50.4974,12.499 50.4974,13.168 C50.4974,13.837 49.9494,14.385 49.2804,14.385 C48.6114,14.385 48.0634,13.837 48.0634,13.168 M52.7244,13.168 C52.7244,12.499 53.2714,11.951 53.9414,11.951 C54.6224,11.951 55.1574,12.499 55.1574,13.168 C55.1574,13.837 54.6224,14.385 53.9414,14.385 C53.2714,14.385 52.7244,13.837 52.7244,13.168 M57.3964,13.168 C57.3964,12.499 57.9324,11.951 58.6134,11.951 C59.2824,11.951 59.8304,12.499 59.8304,13.168 C59.8304,13.837 59.2824,14.385 58.6134,14.385 C57.9324,14.385 57.3964,13.837 57.3964,13.168" id="Fill-27" fill="#CFCFCF"></path>
                <path d="M79.9467,57.5195 C79.9467,47.2195 71.5967,38.8695 61.2967,38.8695 C50.9967,38.8695 42.6467,47.2195 42.6467,57.5195 C42.6467,67.8195 50.9967,76.1695 61.2967,76.1695 C71.5967,76.1695 79.9467,67.8195 79.9467,57.5195" id="Fill-29" fill="#93C516"></path>
                <polyline id="Stroke-31" stroke="#FFFFFF" stroke-width="3" stroke-linecap="round" stroke-linejoin="round" points="52.904 58.8857 58.521 63.2987 70.155 50.0597"></polyline>
            </g>
        </g>
    </g>
</svg>