<?xml version="1.0" encoding="UTF-8"?>
<svg width="253px" height="164px" viewBox="0 0 253 164" version="1.1" xmlns="http://www.w3.org/2000/svg" xmlns:xlink="http://www.w3.org/1999/xlink">
    <!-- Generator: Sketch 49 (51002) - http://www.bohemiancoding.com/sketch -->
    <title>Email-img</title>
    <desc>Created with Sketch.</desc>
    <defs>
        <path d="M0.170708472,55.6549189 C81.2156887,6.37945946 144.018278,25.5057297 144.018278,25.5057297 L145.026667,1.12151351 C140.18338,0.569837838 135.369552,0.312540541 130.597269,0.312540541 C60.6883726,0.314054054 0.170708472,55.6549189 0.170708472,55.6549189" id="path-1"></path>
        <path d="M0.0650972222,9.58778947 C65.577125,-0.459789474 101.160326,27.7958947 101.160326,27.7958947 L108.273333,12.7208421 C91.2579792,3.62378947 72.3101458,0.730947368 55.0783056,0.731684211 C24.9398056,0.733157895 0.0650972222,9.58778947 0.0650972222,9.58778947" id="path-3"></path>
        <path d="M61.4592473,37.63748 L69.8870968,29.29344 C45.9644086,0.8436 0.662365591,0.20216 0.662365591,0.20216 C45.6031183,9.79868 61.4592473,37.63748 61.4592473,37.63748" id="path-5"></path>
        <path d="M0,1.12151351 L1.00820312,25.5057297 C1.00820312,25.5057297 63.7992448,6.37945946 144.829323,55.6549189 C144.829323,55.6549189 84.3227865,0.314054054 14.4275,0.312540541 C9.65533854,0.312540541 4.84315104,0.569837838 0,1.12151351" id="path-7"></path>
        <path d="M0.725909722,12.7208421 L7.83967361,27.7958947 C7.83967361,27.7958947 43.4221181,-0.459789474 108.934903,9.58778947 C108.934903,9.58778947 84.0601944,0.733157895 53.9216944,0.731684211 C36.6898542,0.730947368 17.7420208,3.62378947 0.725909722,12.7208421" id="path-9"></path>
        <path d="M0.112903226,29.29344 L8.54075269,37.63748 C8.54075269,37.63748 24.396129,9.79868 69.3383871,0.20216 C69.3383871,0.20216 24.0355914,0.8436 0.112903226,29.29344" id="path-11"></path>
        <polygon id="path-13" points="0.482864901 0.293990783 14.3042381 0.293990783 14.3042381 14.0107741 0.482864901 14.0107741"></polygon>
    </defs>
    <g id="Welcome" stroke="none" stroke-width="1" fill="none" fill-rule="evenodd">
        <g id="welcome-email_payour" transform="translate(-224.000000, -201.000000)">
            <g id="Email-img" transform="translate(187.000000, 201.000000)">
                <g id="Group-3" transform="translate(180.000000, 55.000000)">
                    <mask id="mask-2" fill="white">
                        <use xlink:href="#path-1"></use>
                    </mask>
                    <g id="Clip-2"></g>
                    <path d="M0.170708472,55.6549189 C81.2156887,6.37945946 144.018278,25.5057297 144.018278,25.5057297 L145.026667,1.12151351 C140.18338,0.569837838 135.369552,0.312540541 130.597269,0.312540541 C60.6883726,0.314054054 0.170708472,55.6549189 0.170708472,55.6549189" id="Fill-1" mask="url(#mask-2)"></path>
                </g>
                <g id="Group-6" transform="translate(193.000000, 102.000000)">
                    <mask id="mask-4" fill="white">
                        <use xlink:href="#path-3"></use>
                    </mask>
                    <g id="Clip-5"></g>
                    <path d="M0.0650972222,9.58778947 C65.577125,-0.459789474 101.160326,27.7958947 101.160326,27.7958947 L108.273333,12.7208421 C91.2579792,3.62378947 72.3101458,0.730947368 55.0783056,0.731684211 C24.9398056,0.733157895 0.0650972222,9.58778947 0.0650972222,9.58778947" id="Fill-4" mask="url(#mask-4)"></path>
                </g>
                <g id="Group-9" transform="translate(202.000000, 123.000000)">
                    <mask id="mask-6" fill="white">
                        <use xlink:href="#path-5"></use>
                    </mask>
                    <g id="Clip-8"></g>
                    <path d="M61.4592473,37.63748 L69.8870968,29.29344 C45.9644086,0.8436 0.662365591,0.20216 0.662365591,0.20216 C45.6031183,9.79868 61.4592473,37.63748 61.4592473,37.63748" id="Fill-7" mask="url(#mask-6)"></path>
                </g>
                <g id="Group-12" transform="translate(0.000000, 55.000000)">
                    <mask id="mask-8" fill="white">
                        <use xlink:href="#path-7"></use>
                    </mask>
                    <g id="Clip-11"></g>
                    <path d="M0,1.12151351 L1.00820312,25.5057297 C1.00820312,25.5057297 63.7992448,6.37945946 144.829323,55.6549189 C144.829323,55.6549189 84.3227865,0.314054054 14.4275,0.312540541 C9.65533854,0.312540541 4.84315104,0.569837838 0,1.12151351" id="Fill-10" mask="url(#mask-8)"></path>
                </g>
                <g id="Group-15" transform="translate(22.000000, 102.000000)">
                    <mask id="mask-10" fill="white">
                        <use xlink:href="#path-9"></use>
                    </mask>
                    <g id="Clip-14"></g>
                    <path d="M0.725909722,12.7208421 L7.83967361,27.7958947 C7.83967361,27.7958947 43.4221181,-0.459789474 108.934903,9.58778947 C108.934903,9.58778947 84.0601944,0.733157895 53.9216944,0.731684211 C36.6898542,0.730947368 17.7420208,3.62378947 0.725909722,12.7208421" id="Fill-13" mask="url(#mask-10)"></path>
                </g>
                <g id="Group-18" transform="translate(53.000000, 123.000000)">
                    <mask id="mask-12" fill="white">
                        <use xlink:href="#path-11"></use>
                    </mask>
                    <g id="Clip-17"></g>
                    <path d="M0.112903226,29.29344 L8.54075269,37.63748 C8.54075269,37.63748 24.396129,9.79868 69.3383871,0.20216 C69.3383871,0.20216 24.0355914,0.8436 0.112903226,29.29344" id="Fill-16" mask="url(#mask-12)"></path>
                </g>
                <g id="Group-92" transform="translate(37.000000, 0.000000)">
                    <path d="M80.2004713,161.73287 C76.1222624,161.73287 72.8045639,158.412059 72.8045639,154.331709 L72.8045639,101.701312 C72.8045639,99.4944922 73.8022146,97.3972571 75.4961818,95.9960774 C75.5747251,95.9106765 75.6593101,95.8313217 75.7522027,95.7580129 L119.177576,61.2409253 C121.019567,59.7770175 123.211982,59.0031189 125.518436,59.0031189 C127.824889,59.0031189 130.017304,59.7770175 131.859295,61.2409253 L175.284668,95.7580129 C175.378316,95.8320774 175.465167,95.9129438 175.54371,95.9991005 C177.236167,97.3995244 178.233062,99.4960037 178.233062,101.701312 L178.233062,154.331709 C178.233062,158.412059 174.914609,161.73287 170.837155,161.73287 L80.2004713,161.73287 Z" id="Fill-19" fill="#FFFFFF"></path>
                    <path d="M125.518511,56.7359134 C122.735511,56.7359134 119.98272,57.7055539 117.768404,59.4657198 L74.3430304,93.9828074 C74.2002931,94.0954157 74.0658633,94.2163373 73.9397409,94.3433051 C71.7971707,96.1714894 70.5382125,98.8672866 70.5382125,101.701388 L70.5382125,154.331029 C70.5382125,159.662918 74.8731976,164.000227 80.2005469,164.000227 L170.836475,164.000227 C176.163824,164.000227 180.49881,159.662918 180.49881,154.331029 L180.49881,101.701388 C180.49881,98.8665309 179.239851,96.1707336 177.095771,94.3425493 C176.970404,94.2155816 176.836729,94.0954157 176.693992,93.9828074 L133.268619,59.4657198 C131.054302,57.7055539 128.301511,56.7359134 125.518511,56.7359134 M125.518511,61.2704756 C127.252505,61.2704756 128.985744,61.8524111 130.450123,63.016282 L173.876251,97.5333696 L173.824141,97.5333696 C175.120105,98.4652221 175.967466,99.9827889 175.967466,101.701388 L175.967466,154.331029 C175.967466,157.166641 173.670075,159.465665 170.836475,159.465665 L80.2005469,159.465665 C77.3669469,159.465665 75.0695558,157.166641 75.0695558,154.331029 L75.0695558,101.701388 C75.0695558,99.9827889 75.916917,98.4652221 77.2128812,97.5333696 L77.1607707,97.5333696 L120.586899,63.016282 C122.051278,61.8524111 123.784517,61.2704756 125.518511,61.2704756" id="Fill-21" fill="#009245"></path>
                    <path d="M170.436207,102.942876 L129.637502,124.439724 C127.312923,126.094839 123.724099,126.094839 121.39952,124.439724 L80.6008155,102.942876 L121.39952,140.724092 C123.724099,142.876498 127.312923,142.876498 129.637502,140.724092 L170.436207,102.942876 Z" id="Fill-23" fill="#CFCFCF"></path>
                    <path d="M170.436282,102.942951 L129.637578,140.724168 C127.312999,142.876573 123.724175,142.876573 121.399596,140.724168 L80.600891,102.942951" id="Stroke-25" stroke="#CFCFCF" stroke-width="2.591" stroke-linecap="round" stroke-linejoin="round"></path>
                    <g id="Group-30" transform="translate(81.564179, 114.119816)">
                        <path d="M87.531203,39.9785143 L51.0425612,3.46168479 C47.1282358,-0.454665438 40.7820896,-0.454665438 36.8677642,3.46168479 L0.37761194,39.9785143" id="Fill-27" fill="#FFFFFF"></path>
                        <path d="M87.531203,39.9785143 L51.0425612,3.46168479 C47.1282358,-0.454665438 40.7820896,-0.454665438 36.8677642,3.46168479 L0.37761194,39.9785143" id="Stroke-29" stroke="#CFCFCF" stroke-width="2.591" stroke-linecap="round" stroke-linejoin="round"></path>
                    </g>
                    <path d="M244.270292,68.5479945 L244.941686,75.8305014 L251.540832,78.9721972 C252.538483,79.4468147 252.511295,80.8774691 251.497029,81.3142986 L244.783089,84.2028147 L243.836793,91.4550912 C243.693301,92.5516995 242.32559,92.9673677 241.596799,92.1367871 L236.77696,86.6393862 L229.592516,87.9801051 C228.505748,88.1826488 227.687841,87.0097088 228.252748,86.0589622 L231.98733,79.7725475 L228.49291,73.3493401 C227.965008,72.378188 228.826719,71.2369899 229.904423,71.4803447 L237.032981,73.0923816 L242.058241,67.7824092 C242.817996,66.9790359 244.169092,67.4468516 244.270292,68.5479945" id="Fill-31" fill="#FFB01D"></path>
                    <path d="M4.89566328,26.1676737 L10.1716573,29.0365401 L15.3305916,25.9621069 C16.1107379,25.4973143 17.0736484,26.1691853 16.9082543,27.062494 L15.8124245,32.9702728 L20.3286633,36.9297014 C21.0113857,37.5282636 20.6700245,38.6535908 19.7705528,38.7714894 L13.817123,39.5537014 L11.4487409,45.0760424 C11.0907648,45.9104018 9.91714687,45.9338304 9.52669612,45.1138304 L6.94307522,39.6897382 L0.963212537,39.1425677 C0.0592095522,39.0594341 -0.325199403,37.9492221 0.333355821,37.3242083 L4.69024239,33.1894433 L3.36255881,27.3292774 C3.16166925,26.4435263 4.09814687,25.7338673 4.89566328,26.1676737" id="Fill-33" fill="#FFB01D"></path>
                    <path d="M199.792967,110.56623 L202.503466,110.549604 L203.873442,108.209014 C204.081128,107.855318 204.608275,107.910488 204.737418,108.299705 L205.590066,110.874581 L208.238636,111.455005 C208.638904,111.542673 208.748412,112.06188 208.418379,112.305235 L206.235782,113.912737 L206.501621,116.612313 C206.542403,117.020424 206.083227,117.285696 205.750173,117.046876 L203.547185,115.465825 L201.064009,116.553364 C200.688663,116.71812 200.294436,116.362912 200.419048,115.972184 L201.240731,113.386728 L199.439522,111.359779 C199.167642,111.053696 199.382881,110.568498 199.792967,110.56623" id="Fill-35" fill="#FFB01D"></path>
                    <path d="M16.0872504,91.0639097 L14.7489937,93.4233935 L16.092537,95.7790986 C16.2956922,96.1350618 15.98454,96.5650894 15.5835161,96.4827115 L12.9273937,95.9378083 L11.1035281,97.9451078 C10.8278713,98.2481677 10.3233818,98.0849235 10.2780684,97.6775687 L9.97446836,94.9817714 L7.50413104,93.8662691 C7.13029522,93.6969788 7.12954,93.166435 7.5026206,92.9971447 L9.97144746,91.8755963 L10.2682504,89.1790433 C10.3128087,88.7716885 10.816543,88.6069327 11.0929549,88.9099926 L12.9221072,90.9120018 L15.5759639,90.3618083 C15.977743,90.2786747 16.2896504,90.7071908 16.0872504,91.0639097" id="Fill-37" fill="#FFB01D"></path>
                    <path d="M229.177671,24.2251429 L230.361107,28.0916129 L234.286761,29.0476498 C234.880367,29.192 235.02688,29.9696774 234.526922,30.3203502 L231.218286,32.6412903 L231.522641,36.6732719 C231.56871,37.2831705 230.875414,37.6625622 230.38754,37.2945069 L227.158958,34.8632258 L223.420599,36.3989309 C222.855692,36.6309493 222.280967,36.0883134 222.47959,35.5101567 L223.792925,31.6860092 L221.17834,28.6032627 C220.783358,28.1369585 221.120943,27.4220092 221.731919,27.4325899 L225.772367,27.5013641 L227.89379,24.0603871 C228.214761,23.5396682 228.998683,23.6409401 229.177671,24.2251429" id="Fill-39" fill="#FFB01D"></path>
                    <g id="Group-43" transform="translate(37.761194, 0.000000)">
                        <mask id="mask-14" fill="white">
                            <use xlink:href="#path-13"></use>
                        </mask>
                        <g id="Clip-42"></g>
                        <path d="M8.65229791,0.796571429 L9.83573373,4.66304147 L13.7613875,5.61907834 C14.3549934,5.76342857 14.5015069,6.54110599 14.0015487,6.8917788 L10.6929128,9.21271889 L10.9972681,13.2447005 C11.0433367,13.8545991 10.3500412,14.2339908 9.86141134,13.8659355 L6.63358448,11.4346544 L2.89522627,12.9703594 C2.33031881,13.2023779 1.75559343,12.6597419 1.95421731,12.0815853 L3.26755164,8.25743779 L0.652966567,5.17469124 C0.257984478,4.7083871 0.595569552,3.99343779 1.20654567,4.00401843 L5.24699343,4.07279263 L7.36841731,0.631815668 C7.68938746,0.111096774 8.47330985,0.212368664 8.65229791,0.796571429" id="Fill-41" fill="#FFB01D" mask="url(#mask-14)"></path>
                    </g>
                    <path d="M136.296689,19.6038949 C136.296689,19.6038949 87.2343245,62.4744018 86.062217,67.7677475 C86.062217,67.7677475 87.8943901,68.8734249 89.742423,71.6584018 C91.881217,74.8817198 94.7442707,76.369812 96.3513872,75.7417751 C98.6669036,74.8363742 98.6857842,73.1903281 98.6857842,73.1903281 L130.331175,89.4006323 C130.331175,89.4006323 142.506895,87.2059041 169.383047,65.4309364 L176.840127,57.1969272 L136.296689,19.6038949 Z" id="Fill-44" fill="#CE8946"></path>
                    <path d="M86.1762558,20.3601843 C86.1762558,20.3601843 90.9855215,24.8244608 97.757614,22.0447742 L119.076074,13.1381382 C119.076074,13.1381382 126.475002,8.99430415 132.828701,14.6821567 C132.828701,14.6821567 124.565796,29.2547281 137.26262,33.531576 C137.26262,33.531576 149.241981,40.9690138 155.214292,47.8056221 C158.217062,51.2443318 164.807145,57.2662304 167.883927,60.58553 C168.709387,61.4750599 170.452444,62.8694378 171.26431,64.1489401 C172.391859,65.9264885 174.492136,69.7559263 169.982695,72.6444424 C169.982695,72.6444424 166.859844,75.4974378 161.836095,71.4450507 C157.166545,67.678341 149.254065,59.3098065 144.328495,55.2596866 C144.061145,55.0405161 142.768957,54.6029309 144.391178,56.6419724 C146.391766,59.1556313 156.054101,68.3842212 156.054101,68.3842212 C156.054101,68.3842212 159.690504,71.6581751 160.460077,73.1832995 C161.136002,74.5217512 162.074745,77.3913733 159.320444,80.0304885 C159.320444,80.0304885 155.371378,84.0677604 150.016086,79.7871336 L137.865289,68.7953548 C137.865289,68.7953548 135.262787,66.6066728 137.204468,69.5662304 C137.204468,69.5662304 149.527456,80.78247 149.877124,82.2970138 C150.87251,86.6116498 147.270092,91.5460092 141.003244,88.1526452 L126.78993,77.8712811 C126.78993,77.8712811 125.42071,77.4903779 126.422136,78.7487189 C126.422136,78.7487189 139.664232,87.8533641 140.544068,88.780682 C141.695029,89.9944332 137.95365,94.5546912 131.746465,91.7545991 C122.892975,87.7619171 104.920157,80.3161659 96.3513872,75.7415484 C93.3372887,74.1325346 87.2381006,70.0793917 84.9225842,68.2444055 C84.9225842,68.2444055 75.6627842,60.6391889 61.9222409,58.6356682 L77.1853155,17.5608479 L86.1762558,20.3601843 Z" id="Fill-46" fill="#F1AA63"></path>
                    <path d="M95.681277,77.8437714 C95.681277,77.8437714 99.0752531,74.3657622 101.049408,73.202647 C105.05285,70.8424074 111.290244,74.4080848 111.173184,77.904988 C111.173184,77.904988 112.163283,81.4804903 105.647211,85.7460018 C104.443384,86.5342599 100.708802,88.2966931 96.1789696,83.5021493 C96.1789696,83.5021493 93.5137845,80.3468498 95.681277,77.8437714" id="Fill-48" fill="#EF9C52"></path>
                    <path d="M107.265807,86.9469806 C107.483312,84.3841972 111.646861,80.1572295 113.417106,78.7031465 C115.5053,76.9905935 122.99561,76.0458931 122.864201,83.8808608 C122.864201,83.8808608 121.7291,89.2407134 117.310285,91.8193677 C115.210762,93.0452111 106.802855,92.3808977 107.265807,86.9469806" id="Fill-50" fill="#EF9C52"></path>
                    <path d="M124.012972,85.144341 C125.496232,83.3358065 131.734381,83.1702949 131.158145,88.8309401 C130.940641,90.9750323 129.383369,94.3563041 126.036217,95.3516406 C123.603641,96.075659 117.727244,93.6549585 119.196154,91.3272166 C120.205889,89.7265161 120.662799,89.2322488 124.012972,85.144341" id="Fill-52" fill="#EF9C52"></path>
                    <path d="M94.4848513,78.403941 C94.4848513,78.403941 97.8788275,74.9259318 99.8522275,73.7628166 C103.855669,71.402577 110.092308,74.9674986 109.976004,78.4644018 C109.976004,78.4644018 110.966102,82.0406599 104.450786,86.3061714 C103.245448,87.0944295 99.5116215,88.8568627 94.9817887,84.0623189 C94.9817887,84.0623189 92.3166036,80.9070194 94.4848513,78.403941" id="Fill-54" fill="#FEBA6C"></path>
                    <path d="M104.625922,44.9620737 C104.625922,44.9620737 112.211391,52.7063502 123.442325,33.9377972 C123.442325,33.9377972 127.880776,36.143106 135.62031,32.8683963 L137.418498,30.7197696 C137.418498,30.7197696 122.573818,30.4295576 122.602516,30.7258157 C122.63197,31.0228295 104.625922,44.9620737 104.625922,44.9620737" id="Fill-56" fill="#EF9C52"></path>
                    <path d="M106.069306,87.5071502 C106.287566,84.9443668 110.449604,80.7173991 112.22136,79.2633161 C114.309554,77.5500074 121.798354,76.6068184 121.66619,84.4410304 C121.66619,84.4410304 120.533354,89.8008829 116.113784,92.3795373 C114.012751,93.6053806 105.606354,92.9410673 106.069306,87.5071502" id="Fill-58" fill="#FEBA6C"></path>
                    <path d="M122.816471,85.7045106 C124.298976,83.8952203 130.537125,83.7312203 129.961644,89.3911097 C129.743384,91.5344461 128.186868,94.9164737 124.839716,95.9118101 C122.406384,96.6358286 116.530743,94.2151281 117.999653,91.8866304 C119.008632,90.2866857 119.465543,89.7916627 122.816471,85.7045106" id="Fill-60" fill="#FEBA6C"></path>
                    <path d="M85.4880958,72.0302359 C86.1677973,70.9275816 87.1881048,69.91713 89.1222331,68.7237843 C90.2920749,68.0027889 93.3159913,68.0473788 94.9684212,69.3948995 C96.1556331,70.3630286 98.4545346,72.5706046 97.6736331,74.1773512 C96.1903734,77.2291115 93.8099078,81.3185309 89.9960272,79.5681899 C89.9960272,79.5681899 82.4596481,76.9457014 85.4880958,72.0302359" id="Fill-62" fill="#EF9C52"></path>
                    <path d="M84.3073033,71.9992498 C84.9862496,70.8965954 86.006557,69.8861438 87.9399301,68.6927982 C89.1097719,67.9718028 92.1344436,68.0163926 93.7868734,69.3639134 C94.9733301,70.3320424 97.2729869,72.5396184 96.4928406,74.146365 C95.0080704,77.1981253 92.62836,81.2875447 88.8137242,79.5372037 C88.8137242,79.5372037 81.2788555,76.9147152 84.3073033,71.9992498" id="Fill-64" fill="#FEBA6C"></path>
                    <polygon id="Fill-66" fill="#E1E1E1" points="85.1156194 15.9945346 70.3555239 67.7097051 44.9565896 59.4069217 63.2707687 7.13929032"></polygon>
                    <path d="M87.398057,70.5842396 C87.398057,70.5842396 85.6693496,74.0373088 87.7379078,75.840553 C87.7379078,75.840553 90.2052242,79.7002212 94.532657,74.38647 C95.2538958,73.5014747 94.1263466,71.6347465 91.830466,70.7006267 C91.830466,70.7006267 89.6894063,69.5488479 87.398057,70.5842396" id="Fill-68" fill="#FECC9F"></path>
                    <path d="M98.098069,78.537635 C98.098069,78.537635 99.9982122,75.4065198 101.320609,75.055847 C102.683033,74.6938378 106.587541,75.1011926 107.740767,79.1346857 C107.939391,79.8284737 106.749159,81.0747226 106.200111,81.745082 C105.187356,82.9837733 102.75629,84.7220221 100.399991,83.0200498 C100.399991,83.0200498 97.3096152,81.4412664 98.098069,78.537635" id="Fill-70" fill="#FECC9F"></path>
                    <path d="M110.988004,83.0514894 C111.461529,82.131729 113.047499,80.5468995 114.304947,80.580153 C116.37275,80.6345677 120.898807,82.7461622 119.271299,85.6112498 C119.271299,85.6112498 117.877911,88.0387521 115.505753,88.3463465 C115.505753,88.3463465 111.342204,89.272153 110.337001,85.3769641 C110.185956,84.7927613 110.713102,83.588835 110.988004,83.0514894" id="Fill-72" fill="#FECC9F"></path>
                    <path d="M121.072206,90.2143594 C121.475496,91.7568664 123.806116,93.5918525 125.521985,92.3879263 C126.217546,91.9004608 127.742343,90.1682581 127.91831,89.3376774 C128.215869,87.9319631 125.801418,84.5801659 123.002558,87.0635945 C122.341737,87.6500645 120.84866,89.3595945 121.072206,90.2143594" id="Fill-74" fill="#FECC9F"></path>
                    <path d="M142.784213,14.5492184 C142.784213,14.5492184 134.605138,10.784776 127.264362,16.5081493 L115.498729,21.8196332 C115.498729,21.8196332 110.646416,22.7764258 108.418505,28.8308221 L102.154679,38.5264719 C102.154679,38.5264719 97.2532755,45.1023429 109.063467,45.6094581 C109.063467,45.6094581 116.110461,43.6248313 122.777577,33.5467668 L122.913517,32.1697714 C122.913517,32.1697714 123.456523,33.9579005 127.402568,33.7659373 C127.402568,33.7659373 131.563852,32.8884995 137.30884,31.757882 C137.30884,31.757882 138.065574,32.9610525 142.996431,36.5410894 C142.996431,36.5410894 155.091341,44.9579926 157.646264,48.9536977 L171.670016,62.7312092 C171.670016,62.7312092 174.200016,62.0721862 181.370111,53.5026194 L195.342508,50.4357438 L186.146147,10.362306 C186.146147,10.362306 163.731102,16.0350433 157.380425,15.8680203 L142.784213,14.5492184 Z" id="Fill-76" fill="#FEBA6C"></path>
                    <polygon id="Fill-78" fill="#E1E1E1" points="176.694218 10.1144922 189.681048 55.9808332 210.309233 50.828059 196.550564 4.32536774"></polygon>
                    <path d="M105.266276,33.7102378 C105.266276,33.7102378 110.18505,32.5252055 111.158533,35.951823 C111.158533,35.951823 109.000859,41.5701456 107.23439,42.6523945 C105.868945,43.4905327 101.699354,43.3779244 101.156348,41.1537217 C101.156348,41.1537217 100.922984,38.903823 105.266276,33.7102378" id="Fill-80" fill="#FECC9F"></path>
                    <path d="M147.49681,39.8192 C147.49681,39.8192 155.776329,44.5124719 165.489264,38.5548129 C165.489264,38.5548129 158.399222,45.9612645 150.585676,42.2142046 L147.49681,39.8192 Z" id="Fill-82" fill="#EF9C52"></path>
                    <path d="M62.8035872,57.0946728 C62.7612946,58.7097327 61.4185066,59.9854562 59.8038379,59.9431336 C58.1891693,59.9008111 56.9158618,58.5570691 56.9581543,56.9412535 C57.0004469,55.3261935 58.3424797,54.0512258 59.9579036,54.0935484 C61.5710618,54.135871 62.8451245,55.4788571 62.8035872,57.0946728" id="Fill-84" fill="#2F2F2F"></path>
                    <path d="M62.8207307,56.4370857 C62.7784382,58.0529014 61.4356501,59.3278691 59.8209815,59.2855465 C58.2063128,59.2424682 56.9330054,57.899482 56.9752979,56.2836664 C57.0175904,54.6686065 58.3596233,53.3936387 59.9750472,53.4359613 C61.5882054,53.4782839 62.8622681,54.8220258 62.8207307,56.4370857" id="Fill-86" fill="#6A6A6A"></path>
                    <path d="M201.306587,46.0447005 C201.26505,47.6597604 199.921506,48.9347281 198.307593,48.8924055 C196.694435,48.8500829 195.418861,47.506341 195.461909,45.8912811 C195.504202,44.2754654 196.84699,43.0004977 198.460903,43.0428203 C200.074817,43.0851429 201.348879,44.4288848 201.306587,46.0447005" id="Fill-88" fill="#2F2F2F"></path>
                    <path d="M201.323806,45.3869622 C201.282269,47.0020221 199.938725,48.2769899 198.324812,48.2346673 C196.710899,48.1923447 195.436081,46.8493585 195.479128,45.2335429 C195.521421,43.6184829 196.864209,42.3435152 198.478122,42.3858378 C200.092036,42.4281604 201.366099,43.7711465 201.323806,45.3869622" id="Fill-90" fill="#6A6A6A"></path>
                </g>
            </g>
        </g>
    </g>
</svg>