<?xml version="1.0" encoding="UTF-8"?>
<svg width="282px" height="179px" viewBox="0 0 282 179" version="1.1" xmlns="http://www.w3.org/2000/svg" xmlns:xlink="http://www.w3.org/1999/xlink">
    <!-- Generator: Sketch 49 (51002) - http://www.bohemiancoding.com/sketch -->
    <title>password</title>
    <desc>Created with Sketch.</desc>
    <defs>
        <polygon id="path-1" points="0.52597807 0.139510701 8.26980572 0.139510701 8.26980572 8.21817578 0.52597807 8.21817578"></polygon>
        <polygon id="path-3" points="0.635130488 0.976461022 246.572859 0.976461022 246.572859 7.03647021 0.635130488 7.03647021"></polygon>
        <path d="M0.275,0.199 C0.275,0.223 0.275,0.247 0.279,0.273 L0.279,0.199 L0.275,0.199 Z" id="path-5"></path>
        <polygon id="path-7" points="0.414 0.415 114.906 0.415 114.906 144.7966 0.414 144.7966"></polygon>
        <polygon id="path-9" points="0 179 281.273 179 281.273 0.415 0 0.415"></polygon>
    </defs>
    <g id="Welcome" stroke="none" stroke-width="1" fill="none" fill-rule="evenodd">
        <g id="forgot-password_debtor/payor" transform="translate(-219.000000, -192.000000)">
            <g id="password" transform="translate(219.000000, 192.000000)">
                <g id="Group-23" transform="translate(0.000000, 12.000000)">
                    <path d="M11.6236103,9.0025605 L19.0177542,15.2740659 L28.1562244,12.0845345 C29.5376908,11.6020336 30.8391881,12.9831922 30.2884009,14.3442466 L26.6418094,23.3539441 L32.4815537,31.1081343 C33.3652124,32.2802092 32.4625611,33.9528786 31.0031248,33.8463264 L21.3558511,33.1426794 L15.8269867,41.124047 C14.9913095,42.3313042 13.131028,41.9845068 12.7811632,40.5561033 L10.4650578,31.1121551 L1.20763354,28.2915358 C-0.191825906,27.8643215 -0.438730537,25.9785475 0.80378953,25.2025253 L9.02061571,20.0689177 L8.82769023,10.3435107 C8.79770181,8.87288841 10.506042,8.05464744 11.6236103,9.0025605" id="Fill-1" fill="#FFB01D"></path>
                    <path d="M256.921462,78.2394169 L257.349297,85.2789027 L263.585888,88.5036165 C264.529523,88.9911434 264.46055,90.3692863 263.473931,90.760313 L256.948452,93.344708 L255.825885,100.305787 C255.655951,101.358242 254.332462,101.719113 253.657723,100.895846 L249.197445,95.4536387 L242.266123,96.5312238 C241.218527,96.6940678 240.467817,95.5390815 241.037597,94.6404237 L244.806142,88.692596 L241.645362,82.3959604 C241.167547,81.4450317 242.028215,80.3704622 243.054818,80.637848 L249.845195,82.4040021 L254.822273,77.4352489 C255.574982,76.684357 256.856487,77.1748995 256.921462,78.2394169" id="Fill-3" fill="#FFB01D"></path>
                    <path d="M227.337589,1.23188489 L230.362421,4.43347883 L234.643767,3.45339906 C235.291517,3.30563318 235.810316,3.99319684 235.493439,4.5802395 L233.400247,8.46236063 L235.650378,12.2550181 C235.990247,12.8279878 235.500436,13.5366609 234.847688,13.4160357 L230.529356,12.6128728 L227.637473,15.9371024 C227.200642,16.4397074 226.378959,16.1894101 226.290993,15.5279819 L225.716215,11.149287 L221.678775,9.4112789 C221.06901,9.14891908 221.051017,8.28544367 221.649786,7.9979536 L225.613255,6.0940858 L226.009102,1.69629192 C226.069079,1.0318481 226.880765,0.747373657 227.337589,1.23188489" id="Fill-5" fill="#FFB01D"></path>
                    <path d="M24.4069726,107.118699 L27.4318042,110.320293 L31.7131505,109.340213 C32.3609003,109.192447 32.8796999,109.880011 32.5628223,110.467054 L30.4696309,114.349175 L32.7197617,118.141832 C33.0596304,118.714802 32.5698196,119.423475 31.9170718,119.30285 L27.5987398,118.499687 L24.7068568,121.823916 C24.2700255,122.326521 23.4483429,122.076224 23.3603769,121.414796 L22.7855989,117.036101 L18.7481584,115.298093 C18.1383939,115.035733 18.1204008,114.172258 18.7191696,113.884768 L22.6826386,111.9809 L23.0784857,107.583106 C23.1384626,106.918662 23.9501491,106.634188 24.4069726,107.118699" id="Fill-7" fill="#FFB01D"></path>
                    <path d="M270.961339,48.1297578 L271.367182,50.4397304 L273.549339,51.2680235 C273.879212,51.3926695 273.908201,51.8510453 273.597321,52.0179102 L271.538116,53.1196204 L271.429158,55.4617597 C271.412165,55.8165989 270.988328,55.9854741 270.734427,55.7391977 L269.056075,54.1107574 L266.806944,54.7299668 C266.467075,54.8234514 266.175188,54.4706226 266.330128,54.1519711 L267.351733,52.0440456 L266.070228,50.0838861 C265.877303,49.7873491 266.121208,49.399338 266.470074,49.4485933 L268.780181,49.7742814 L270.237618,47.9437939 C270.457534,47.6673612 270.900362,47.7809499 270.961339,48.1297578" id="Fill-9" fill="#FFB01D"></path>
                    <g id="Group-13" transform="translate(272.894592, 12.062520)">
                        <mask id="mask-2" fill="white">
                            <use xlink:href="#path-1"></use>
                        </mask>
                        <g id="Clip-12"></g>
                        <path d="M3.96906691,0.283167665 L5.49047926,2.060379 L7.78759198,1.65226373 C8.134458,1.59094591 8.39235838,1.96991009 8.20942904,2.27247831 L6.997897,4.27686711 L8.09347383,6.34759977 C8.25940973,6.66022009 7.98151707,7.02410612 7.63764989,6.94268411 L5.36752675,6.40389153 L3.74815224,8.09163917 C3.50324684,8.34696252 3.07341287,8.19216018 3.04442407,7.83933146 L2.8524982,5.50221814 L0.75630787,4.47489349 C0.439430266,4.31908593 0.452425247,3.86071016 0.777299761,3.7240016 L2.92846885,2.81730215 L3.25234376,0.495266981 C3.30132484,0.143443471 3.73915572,0.0147765874 3.96906691,0.283167665" id="Fill-11" fill="#FFB01D" mask="url(#mask-2)"></path>
                    </g>
                    <g id="Group-16" transform="translate(7.996911, 159.828395)">
                        <mask id="mask-4" fill="white">
                            <use xlink:href="#path-3"></use>
                        </mask>
                        <g id="Clip-15"></g>
                        <path d="M0.70882621,1.79671241 C0.70882621,1.79671241 -0.817584201,4.65452452 10.0232284,7.03687229 L236.967569,7.03687229 C236.967569,7.03687229 244.560636,6.547335 246.558865,2.94767789 L246.572859,0.976461022 L0.70882621,1.79671241 Z" id="Fill-14" fill="#CFCFCF" mask="url(#mask-4)"></path>
                    </g>
                    <path d="M8.75881683,155.85681 L254.64884,155.85681 L254.64884,162.204711 C254.64884,162.204711 255.018697,163.055119 252.122815,162.842014 L11.072923,162.842014 C11.072923,162.842014 8.80879753,163.481328 8.59887861,161.994622 L8.75881683,155.85681 Z" id="Fill-17" fill="#E6E7E8"></path>
                    <path d="M243.228251,159.567945 C243.228251,159.812211 243.066314,160.009232 242.862392,160.009232 L234.496624,160.009232 C234.295701,160.009232 234.132764,159.812211 234.132764,159.567945 C234.132764,159.317647 234.295701,159.1156 234.496624,159.1156 L242.862392,159.1156 C243.066314,159.1156 243.228251,159.317647 243.228251,159.567945" id="Fill-19" fill="#CFCFCF"></path>
                    <path d="M115.002579,155.906769 C115.002579,155.906769 114.053946,159.086248 117.212726,159.401884 L145.738707,159.401884 C145.738707,159.401884 148.772535,159.796932 148.368691,156.015331 L115.002579,155.906769 Z" id="Fill-21" fill="#CFCFCF"></path>
                </g>
                <g id="Group-26" transform="translate(148.000000, 168.000000)">
                    <mask id="mask-6" fill="white">
                        <use xlink:href="#path-5"></use>
                    </mask>
                    <g id="Clip-25"></g>
                    <path d="M0.275,0.199 C0.275,0.223 0.275,0.247 0.279,0.273 L0.279,0.199 L0.275,0.199 Z" id="Fill-24" mask="url(#mask-6)"></path>
                </g>
                <g id="Group-53">
                    <path d="M230.562,168.0212 L230.562,55.9032 C230.562,50.8132 226.399,46.6502 221.312,46.6502 L42.057,46.6502 C36.969,46.6502 32.805,50.8132 32.805,55.9032 L32.805,168.0212 L230.562,168.0212 Z" id="Fill-27" fill="#474D59"></path>
                    <path d="M216.4771,161.1388 L46.8881,161.1388 C42.6231,161.1388 39.1651,157.6808 39.1651,153.4158 L39.1651,61.3148 C39.1651,57.0498 42.6231,53.5918 46.8881,53.5918 L216.4771,53.5918 C220.7421,53.5918 224.2001,57.0498 224.2001,61.3148 L224.2001,153.4158 C224.2001,157.6808 220.7421,161.1388 216.4771,161.1388" id="Fill-29" fill="#FFFFFF"></path>
                    <g id="Group-33" transform="translate(74.000000, 0.000000)">
                        <mask id="mask-8" fill="white">
                            <use xlink:href="#path-7"></use>
                        </mask>
                        <g id="Clip-32"></g>
                        <path d="M105.884,25.0566 C105.845,25.0716 101.86,26.5776 95.444,26.5776 C91.485,26.5776 87.399,26.0206 83.299,24.9246 C68.437,20.9496 63.801,12.2346 63.503,11.6446 L58.265,0.4146 L52.063,11.1026 C51.789,11.5216 46.285,19.6786 31.168,24.8706 C27.558,26.1096 23.755,26.7386 19.865,26.7386 C13.774,26.7396 9.473,25.1546 9.459,25.1496 L0.414,21.5876 L0.747,40.2426 C1.139,62.2636 1.28,64.6436 1.328,65.3566 C3.183,122.1236 52.88,142.8406 53.384,143.0426 L57.739,144.7966 L62.06,142.9736 C64.185,142.0776 114.094,120.4166 114.345,64.5986 C114.41,63.3166 114.518,59.2666 114.699,40.0506 L114.78,31.1556 L114.906,21.3496 L105.884,25.0566 Z" id="Fill-31" fill="#009245" mask="url(#mask-8)"></path>
                    </g>
                    <path d="M155.6221,31.1972 C137.2171,26.2752 131.6381,14.4312 131.6381,14.4312 C131.6381,14.4312 125.6861,24.6892 107.2771,31.0112 C93.0401,35.9002 81.0801,31.1912 81.0801,31.1912 L81.2391,40.1262 C81.6151,61.2512 81.7591,64.2572 81.8141,65.0272 C83.4701,117.7572 129.3461,136.8332 129.8101,137.0202 L131.6811,137.7742 L133.5401,136.9892 C135.5101,136.1602 181.7161,116.0862 181.8531,64.4082 C181.9131,63.4292 182.0191,59.7732 182.2061,39.9912 L182.2871,31.0882 C182.2871,31.0882 171.6131,35.4732 155.6221,31.1972" id="Fill-34" fill="#E6E7E8"></path>
                    <path d="M155.6221,31.1972 C137.2171,26.2752 131.6381,14.4312 131.6381,14.4312 L131.6811,137.7742 L133.5401,136.9892 C135.5101,136.1602 181.7161,116.0862 181.8531,64.4082 C181.9131,63.4292 182.0191,59.7732 182.2061,39.9912 L182.2871,31.0882 C182.2871,31.0882 171.6131,35.4732 155.6221,31.1972" id="Fill-36" fill="#FFFFFF"></path>
                    <path d="M132.2537,53.0287 C125.8277,53.0287 120.5997,55.6067 120.5997,61.4897 L120.5997,72.3697 C120.5997,78.2527 125.8277,83.0397 132.2537,83.0397 C138.6797,83.0397 143.9077,78.2527 143.9077,72.3697 L143.9077,61.4897 C143.9077,55.6067 138.6797,53.0287 132.2537,53.0287 M132.2537,87.9547 C123.3267,87.9547 116.0617,81.1837 116.0617,72.8597 L116.0617,60.7517 C116.0617,52.4277 123.3267,48.1137 132.2537,48.1137 C141.1807,48.1137 148.4457,52.4277 148.4457,60.7517 L148.4457,72.8597 C148.4457,81.1837 141.1807,87.9547 132.2537,87.9547" id="Fill-38" fill="#474D59"></path>
                    <path d="M110.4491,70.7486 C110.2831,70.7486 109.6381,70.9756 109.6381,70.9876 L109.6381,101.7486 L153.6381,101.7486 L153.6381,70.7486 L110.4491,70.7486 Z" id="Fill-40" fill="#93C516"></path>
                    <mask id="mask-10" fill="white">
                        <use xlink:href="#path-9"></use>
                    </mask>
                    <g id="Clip-43"></g>
                    <polygon id="Fill-42" fill="#474D59" mask="url(#mask-10)" points="109.957 104.012 153.41 104.012 153.41 101.994 109.957 101.994"></polygon>
                    <polygon id="Fill-44" fill="#FFFFFF" mask="url(#mask-10)" points="130.03 81.525 133.335 81.525 133.335 78.4 130.03 78.4"></polygon>
                    <polygon id="Fill-45" fill="#FFFFFF" mask="url(#mask-10)" points="123.417 81.525 126.726 81.525 126.726 78.4 123.417 78.4"></polygon>
                    <polygon id="Fill-46" fill="#FFFFFF" mask="url(#mask-10)" points="136.643 81.525 139.949 81.525 139.949 78.4 136.643 78.4"></polygon>
                    <polygon id="Fill-47" fill="#FFFFFF" mask="url(#mask-10)" points="130.03 87.763 133.335 87.763 133.335 84.637 130.03 84.637"></polygon>
                    <polygon id="Fill-48" fill="#FFFFFF" mask="url(#mask-10)" points="123.417 87.763 126.726 87.763 126.726 84.637 123.417 84.637"></polygon>
                    <polygon id="Fill-49" fill="#FFFFFF" mask="url(#mask-10)" points="136.643 87.763 139.949 87.763 139.949 84.637 136.643 84.637"></polygon>
                    <polygon id="Fill-50" fill="#FFFFFF" mask="url(#mask-10)" points="130.03 94.001 133.335 94.001 133.335 90.875 130.03 90.875"></polygon>
                    <polygon id="Fill-51" fill="#FFFFFF" mask="url(#mask-10)" points="123.417 94.001 126.726 94.001 126.726 90.875 123.417 90.875"></polygon>
                    <polygon id="Fill-52" fill="#FFFFFF" mask="url(#mask-10)" points="136.643 94.001 139.949 94.001 139.949 90.875 136.643 90.875"></polygon>
                </g>
            </g>
        </g>
    </g>
</svg>