<?xml version="1.0" encoding="UTF-8"?>
<svg width="75px" height="75px" viewBox="0 0 75 75" version="1.1" xmlns="http://www.w3.org/2000/svg" xmlns:xlink="http://www.w3.org/1999/xlink">
    <!-- Generator: Sketch 49 (51002) - http://www.bohemiancoding.com/sketch -->
    <title>report-img</title>
    <desc>Created with Sketch.</desc>
    <defs>
        <polygon id="path-1" points="0 0.0005 75 0.0005 75 75 0 75"></polygon>
        <polygon id="path-3" points="0 75 75 75 75 0 0 0"></polygon>
    </defs>
    <g id="Welcome" stroke="none" stroke-width="1" fill="none" fill-rule="evenodd">
        <g id="monthly-expenses-report_Payor" transform="translate(-105.000000, -330.000000)">
            <g id="report-img" transform="translate(105.000000, 330.000000)">
                <path d="M58.3669,30.6793 L58.3669,66.1643 C58.3669,70.5393 61.9139,74.0863 66.2889,74.0863 C70.6639,74.0863 74.2099,70.5393 74.2099,66.1643 L74.2099,30.6793 L58.3669,30.6793 Z" id="Fill-1" fill="#EAEAEA"></path>
                <g id="Group-5">
                    <mask id="mask-2" fill="white">
                        <use xlink:href="#path-1"></use>
                    </mask>
                    <g id="Clip-4"></g>
                    <path d="M73,65.6895 C73,69.2365 70.511,73.0005 66.548,73.0005 L66.019,73.0005 C62.31,73.0005 59,69.4915 59,65.5985 L59,32.0005 L73,32.0005 L73,65.6895 Z M9.346,73.0005 C5.618,73.0005 2,69.2925 2,65.4695 L2,2.0005 L57,2.0005 L57,30.1135 L57,30.8125 L57,65.5985 C57,68.4775 58.362,71.0005 60.467,73.0005 L9.346,73.0005 Z M73.925,30.0005 L59,30.0005 L59,0.6565 C59,0.0775 58.587,0.0005 58.009,0.0005 L1.047,0.0005 C0.469,0.0005 0,0.0775 0,0.6565 L0,65.4695 C0,70.4575 4.455,75.0005 9.346,75.0005 L66.019,75.0005 L66.548,75.0005 L66.55,75.0005 C71.273,75.0005 75,70.9105 75,65.6895 L75,30.8125 C75,30.2345 74.503,30.0005 73.925,30.0005 Z" id="Fill-3" fill="#CFCFCF" mask="url(#mask-2)"></path>
                </g>
                <path d="M66.2886,35.2926 C65.5056,35.2926 64.8716,35.9266 64.8716,36.7096 L64.8716,66.5606 C64.8716,67.2676 65.5056,67.8406 66.2886,67.8406 C67.0716,67.8406 67.7056,67.2676 67.7056,66.5606 L67.7056,36.7096 C67.7056,35.9266 67.0716,35.2926 66.2886,35.2926" id="Fill-6" fill="#474D59"></path>
                <mask id="mask-4" fill="white">
                    <use xlink:href="#path-3"></use>
                </mask>
                <g id="Clip-9"></g>
                <polygon id="Fill-8" fill="#009245" mask="url(#mask-4)" points="6.468 18.38 53.835 18.38 53.835 5.156 6.468 5.156"></polygon>
                <path d="M12.5946,11.4313 L13.2896,11.4313 C14.1686,11.4313 14.6896,10.9913 14.6896,10.3083 C14.6896,9.5913 14.2036,9.2323 13.3936,9.2203 C12.9656,9.2203 12.7226,9.2553 12.5946,9.2783 L12.5946,11.4313 Z M10.8476,8.0753 C11.4146,7.9823 12.2596,7.9133 13.1966,7.9133 C14.3546,7.9133 15.1636,8.0863 15.7196,8.5263 C16.1826,8.8963 16.4376,9.4403 16.4376,10.1583 C16.4376,11.1533 15.7316,11.8363 15.0606,12.0793 L15.0606,12.1143 C15.6046,12.3343 15.9046,12.8553 16.1016,13.5723 C16.3446,14.4523 16.5876,15.4713 16.7386,15.7713 L14.9326,15.7713 C14.8056,15.5513 14.6196,14.9153 14.3886,13.9543 C14.1806,12.9823 13.8446,12.7163 13.1276,12.7043 L12.5946,12.7043 L12.5946,15.7713 L10.8476,15.7713 L10.8476,8.0753 Z" id="Fill-10" fill="#FFFFFF" mask="url(#mask-4)"></path>
                <polygon id="Fill-11" fill="#FFFFFF" mask="url(#mask-4)" points="22.353 12.4731 19.483 12.4731 19.483 14.3251 22.688 14.3251 22.688 15.7721 17.712 15.7721 17.712 7.9711 22.526 7.9711 22.526 9.4171 19.483 9.4171 19.483 11.0381 22.353 11.0381"></polygon>
                <path d="M25.6411,11.6166 C25.7921,11.6516 25.9771,11.6626 26.2321,11.6626 C27.1691,11.6626 27.7471,11.1886 27.7471,10.3896 C27.7471,9.6726 27.2501,9.2436 26.3701,9.2436 C26.0121,9.2436 25.7691,9.2786 25.6411,9.3136 L25.6411,11.6166 Z M23.8941,8.0746 C24.4381,7.9826 25.2011,7.9126 26.2781,7.9126 C27.3661,7.9126 28.1411,8.1216 28.6621,8.5376 C29.1601,8.9316 29.4951,9.5796 29.4951,10.3436 C29.4951,11.1076 29.2411,11.7556 28.7781,12.1956 C28.1761,12.7626 27.2851,13.0166 26.2431,13.0166 C26.0121,13.0166 25.8031,13.0056 25.6411,12.9826 L25.6411,15.7716 L23.8941,15.7716 L23.8941,8.0746 Z" id="Fill-12" fill="#FFFFFF" mask="url(#mask-4)"></path>
                <path d="M32.1237,11.8943 C32.1237,13.4223 32.8417,14.4983 34.0217,14.4983 C35.2137,14.4983 35.8967,13.3643 35.8967,11.8483 C35.8967,10.4473 35.2257,9.2443 34.0107,9.2443 C32.8187,9.2443 32.1237,10.3783 32.1237,11.8943 M37.7607,11.7903 C37.7607,14.3483 36.2097,15.8993 33.9297,15.8993 C31.6147,15.8993 30.2607,14.1513 30.2607,11.9293 C30.2607,9.5913 31.7537,7.8433 34.0567,7.8433 C36.4527,7.8433 37.7607,9.6373 37.7607,11.7903" id="Fill-13" fill="#FFFFFF" mask="url(#mask-4)"></path>
                <path d="M40.6669,11.4313 L41.3619,11.4313 C42.2409,11.4313 42.7619,10.9913 42.7619,10.3083 C42.7619,9.5913 42.2759,9.2323 41.4659,9.2203 C41.0379,9.2203 40.7949,9.2553 40.6669,9.2783 L40.6669,11.4313 Z M38.9199,8.0753 C39.4869,7.9823 40.3319,7.9133 41.2689,7.9133 C42.4269,7.9133 43.2359,8.0863 43.7919,8.5263 C44.2549,8.8963 44.5099,9.4403 44.5099,10.1583 C44.5099,11.1533 43.8039,11.8363 43.1329,12.0793 L43.1329,12.1143 C43.6769,12.3343 43.9769,12.8553 44.1739,13.5723 C44.4169,14.4523 44.6599,15.4713 44.8109,15.7713 L43.0049,15.7713 C42.8779,15.5513 42.6919,14.9153 42.4609,13.9543 C42.2529,12.9823 41.9169,12.7163 41.1999,12.7043 L40.6669,12.7043 L40.6669,15.7713 L38.9199,15.7713 L38.9199,8.0753 Z" id="Fill-14" fill="#FFFFFF" mask="url(#mask-4)"></path>
                <polygon id="Fill-15" fill="#FFFFFF" mask="url(#mask-4)" points="47.289 9.4523 45.194 9.4523 45.194 7.9713 51.189 7.9713 51.189 9.4523 49.06 9.4523 49.06 15.7713 47.289 15.7713"></polygon>
                <path d="M11.3435,28.7882 L8.4995,28.7882 C7.4775,28.7882 6.6495,27.9602 6.6495,26.9382 C6.6495,25.9162 7.4775,25.0882 8.4995,25.0882 L11.3435,25.0882 C12.3655,25.0882 13.1935,25.9162 13.1935,26.9382 C13.1935,27.9602 12.3655,28.7882 11.3435,28.7882" id="Fill-16" fill="#E6E7E8" mask="url(#mask-4)"></path>
                <path d="M50.2645,28.7882 L18.0625,28.7882 C17.0405,28.7882 16.2125,27.9602 16.2125,26.9382 C16.2125,25.9162 17.0405,25.0882 18.0625,25.0882 L50.2645,25.0882 C51.2865,25.0882 52.1145,25.9162 52.1145,26.9382 C52.1145,27.9602 51.2865,28.7882 50.2645,28.7882" id="Fill-17" fill="#E6E7E8" mask="url(#mask-4)"></path>
                <path d="M11.3435,35.9085 L8.4995,35.9085 C7.4775,35.9085 6.6495,35.0805 6.6495,34.0585 C6.6495,33.0365 7.4775,32.2085 8.4995,32.2085 L11.3435,32.2085 C12.3655,32.2085 13.1935,33.0365 13.1935,34.0585 C13.1935,35.0805 12.3655,35.9085 11.3435,35.9085" id="Fill-18" fill="#E6E7E8" mask="url(#mask-4)"></path>
                <path d="M50.2645,35.9085 L18.0625,35.9085 C17.0405,35.9085 16.2125,35.0805 16.2125,34.0585 C16.2125,33.0365 17.0405,32.2085 18.0625,32.2085 L50.2645,32.2085 C51.2865,32.2085 52.1145,33.0365 52.1145,34.0585 C52.1145,35.0805 51.2865,35.9085 50.2645,35.9085" id="Fill-19" fill="#E6E7E8" mask="url(#mask-4)"></path>
                <path d="M11.3435,43.2381 L8.4995,43.2381 C7.4775,43.2381 6.6495,42.4101 6.6495,41.3881 C6.6495,40.3661 7.4775,39.5381 8.4995,39.5381 L11.3435,39.5381 C12.3655,39.5381 13.1935,40.3661 13.1935,41.3881 C13.1935,42.4101 12.3655,43.2381 11.3435,43.2381" id="Fill-20" fill="#E6E7E8" mask="url(#mask-4)"></path>
                <path d="M50.2645,43.2381 L18.0625,43.2381 C17.0405,43.2381 16.2125,42.4101 16.2125,41.3881 C16.2125,40.3661 17.0405,39.5381 18.0625,39.5381 L50.2645,39.5381 C51.2865,39.5381 52.1145,40.3661 52.1145,41.3881 C52.1145,42.4101 51.2865,43.2381 50.2645,43.2381" id="Fill-21" fill="#E6E7E8" mask="url(#mask-4)"></path>
                <path d="M11.3435,50.4724 L8.4995,50.4724 C7.4775,50.4724 6.6495,49.6444 6.6495,48.6224 C6.6495,47.6004 7.4775,46.7724 8.4995,46.7724 L11.3435,46.7724 C12.3655,46.7724 13.1935,47.6004 13.1935,48.6224 C13.1935,49.6444 12.3655,50.4724 11.3435,50.4724" id="Fill-22" fill="#E6E7E8" mask="url(#mask-4)"></path>
                <path d="M50.2645,50.4724 L18.0625,50.4724 C17.0405,50.4724 16.2125,49.6444 16.2125,48.6224 C16.2125,47.6004 17.0405,46.7724 18.0625,46.7724 L50.2645,46.7724 C51.2865,46.7724 52.1145,47.6004 52.1145,48.6224 C52.1145,49.6444 51.2865,50.4724 50.2645,50.4724" id="Fill-23" fill="#E6E7E8" mask="url(#mask-4)"></path>
                <path d="M11.3435,57.7543 L8.4995,57.7543 C7.4775,57.7543 6.6495,56.9263 6.6495,55.9043 C6.6495,54.8823 7.4775,54.0543 8.4995,54.0543 L11.3435,54.0543 C12.3655,54.0543 13.1935,54.8823 13.1935,55.9043 C13.1935,56.9263 12.3655,57.7543 11.3435,57.7543" id="Fill-24" fill="#E6E7E8" mask="url(#mask-4)"></path>
                <path d="M50.2645,57.7543 L18.0625,57.7543 C17.0405,57.7543 16.2125,56.9263 16.2125,55.9043 C16.2125,54.8823 17.0405,54.0543 18.0625,54.0543 L50.2645,54.0543 C51.2865,54.0543 52.1145,54.8823 52.1145,55.9043 C52.1145,56.9263 51.2865,57.7543 50.2645,57.7543" id="Fill-25" fill="#E6E7E8" mask="url(#mask-4)"></path>
                <path d="M50.2645,65.0363 L8.3175,65.0363 C7.2955,65.0363 6.4675,64.2083 6.4675,63.1863 C6.4675,62.1643 7.2955,61.3363 8.3175,61.3363 L50.2645,61.3363 C51.2865,61.3363 52.1145,62.1643 52.1145,63.1863 C52.1145,64.2083 51.2865,65.0363 50.2645,65.0363" id="Fill-26" fill="#009245" mask="url(#mask-4)"></path>
            </g>
        </g>
    </g>
</svg>