<?xml version="1.0" encoding="UTF-8"?>
<svg width="30px" height="32px" viewBox="0 0 30 32" version="1.1" xmlns="http://www.w3.org/2000/svg" xmlns:xlink="http://www.w3.org/1999/xlink">
    <!-- Generator: Sketch 46.2 (44496) - http://www.bohemiancoding.com/sketch -->
    <title>Fill 89</title>
    <desc>Created with Sketch.</desc>
    <defs></defs>
    <g id="Page-1" stroke="none" stroke-width="1" fill="none" fill-rule="evenodd">
        <g id="Web" transform="translate(-235.000000, -941.000000)" fill="#FFFFFF">
            <path d="M263,959.062864 L258,959.062864 C257.448,959.062864 257,959.508852 257,960.058373 L257,964.040412 C257,964.590929 257.448,965.035922 258,965.035922 L263,965.035922 L263,970.013471 C263,970.563988 262.552,971.008981 262,971.008981 L238,971.008981 C237.448,971.008981 237,970.563988 237,970.013471 L237,951.098786 L262,951.098786 C262.552,951.098786 263,951.543779 263,952.094295 L263,959.062864 L263,959.062864 Z M263,962.049393 L263,963.044903 L259,963.044903 L259,962.049393 L259,961.053883 L263,961.053883 L263,962.049393 L263,962.049393 Z M261,943.134708 L261,949.107766 L241.5,949.107766 L261,943.134708 L261,943.134708 Z M263,949.107766 L263,942.139198 C263,941.588681 262.764,941.284055 262.25,941.081967 C261.854,940.925672 261.469,941.01925 261,941.143688 L235,949.107766 L235,971.008981 C235,972.108023 235.896,973 237,973 L263,973 C264.104,973 265,972.108023 265,971.008981 L265,951.098786 C265,949.999743 264.104,949.107766 263,949.107766 L263,949.107766 Z" id="Fill-89"></path>
        </g>
    </g>
</svg>