<?xml version="1.0" encoding="UTF-8"?>
<svg width="33px" height="33px" viewBox="0 0 33 33" version="1.1" xmlns="http://www.w3.org/2000/svg" xmlns:xlink="http://www.w3.org/1999/xlink">
    <!-- Generator: Sketch 46.2 (44496) - http://www.bohemiancoding.com/sketch -->
    <title>Fill 22</title>
    <desc>Created with Sketch.</desc>
    <defs></defs>
    <g id="Page-1" stroke="none" stroke-width="1" fill="none" fill-rule="evenodd">
        <g id="Pay-4" transform="translate(-367.000000, -177.000000)" fill="#7ED321">
            <path d="M389.928529,187.501059 C389.928529,187.501059 382.870529,199.801059 382.748529,199.911059 C382.345529,200.291059 381.712529,200.271059 381.335529,199.871059 L376.763529,195.651059 C376.385529,195.251059 376.406529,194.611059 376.809529,194.241059 C377.212529,193.861059 377.845529,193.881059 378.223529,194.281059 L381.801529,197.581059 L388.196529,186.501059 C388.472529,186.031059 389.083529,185.861059 389.562529,186.141059 C390.040529,186.411059 390.204529,187.031059 389.928529,187.501059 L389.928529,187.501059 Z M383.535529,177.071059 C374.699529,177.071059 367.535529,184.231059 367.535529,193.071059 C367.535529,201.911059 374.699529,209.071059 383.535529,209.071059 C392.371529,209.071059 399.535529,201.911059 399.535529,193.071059 C399.535529,184.231059 392.371529,177.071059 383.535529,177.071059 L383.535529,177.071059 Z" id="Fill-22" transform="translate(383.535529, 193.071059) rotate(8.000000) translate(-383.535529, -193.071059) "></path>
        </g>
    </g>
</svg>