<?xml version="1.0" encoding="UTF-8" standalone="no"?>
<svg width="32px" height="32px" viewBox="0 0 32 32" version="1.1" xmlns="http://www.w3.org/2000/svg" xmlns:xlink="http://www.w3.org/1999/xlink">
    <!-- Generator: Sketch 48.2 (47327) - http://www.bohemiancoding.com/sketch -->
    <title>Fill 23</title>
    <desc>Created with Sketch.</desc>
    <defs></defs>
    <g id="Pay-4-Copy" stroke="none" stroke-width="1" fill="none" fill-rule="evenodd" transform="translate(-358.000000, -178.000000)">
        <path d="M379.657,198.24 C380.048,198.63 380.048,199.27 379.657,199.66 C379.267,200.05 378.633,200.05 378.242,199.66 L374.006,195.42 L369.74,199.69 C369.346,200.08 368.708,200.08 368.314,199.69 C367.921,199.29 367.921,198.65 368.314,198.26 L372.58,193.99 L368.344,189.76 C367.953,189.37 367.953,188.73 368.344,188.34 C368.733,187.95 369.367,187.95 369.758,188.34 L373.994,192.58 L378.292,188.28 C378.686,187.89 379.323,187.89 379.717,188.28 C380.11,188.68 380.11,189.31 379.717,189.71 L375.42,194.01 L379.657,198.24 L379.657,198.24 Z M374,178 C365.163,178 358,185.16 358,194 C358,202.84 365.163,210 374,210 C382.837,210 390,202.84 390,194 C390,185.16 382.837,178 374,178 L374,178 Z" id="Fill-23" fill="#C51616"></path>
    </g>
</svg>