<?xml version="1.0" encoding="UTF-8" standalone="no"?>
<svg width="25px" height="25px" viewBox="0 0 25 25" version="1.1" xmlns="http://www.w3.org/2000/svg" xmlns:xlink="http://www.w3.org/1999/xlink">
    <!-- Generator: Sketch 48.2 (47327) - http://www.bohemiancoding.com/sketch -->
    <title>Fill 35</title>
    <desc>Created with Sketch.</desc>
    <defs></defs>
    <g id="Pay-4-Copy" stroke="none" stroke-width="1" fill="none" fill-rule="evenodd" transform="translate(-428.000000, -535.000000)">
        <path d="M446.16425,547.4975 L451.82925,541.8375 C453.39225,540.2775 453.39225,537.7375 451.82925,536.1775 C450.26425,534.6075 447.72825,534.6075 446.16425,536.1775 L440.50025,541.8375 L434.83625,536.1775 C433.27325,534.6075 430.73725,534.6075 429.17225,536.1775 C427.60925,537.7375 427.60925,540.2775 429.17225,541.8375 L434.83625,547.4975 L429.17225,553.1675 C427.60925,554.7275 427.60925,557.2675 429.17225,558.8275 C430.73725,560.3975 433.27325,560.3975 434.83625,558.8275 L440.50025,553.1675 L446.16425,558.8275 C447.72825,560.3975 450.26425,560.3975 451.82925,558.8275 C453.39225,557.2675 453.39225,554.7275 451.82925,553.1675 L446.16425,547.4975" id="Fill-35" fill="#C51616"></path>
    </g>
</svg>