<?xml version="1.0" encoding="UTF-8"?>
<svg width="15px" height="14px" viewBox="0 0 15 14" version="1.1" xmlns="http://www.w3.org/2000/svg" xmlns:xlink="http://www.w3.org/1999/xlink">
    <!-- Generator: Sketch 46.2 (44496) - http://www.bohemiancoding.com/sketch -->
    <title>Fill 118</title>
    <desc>Created with Sketch.</desc>
    <defs></defs>
    <g id="Page-1" stroke="none" stroke-width="1" fill="none" fill-rule="evenodd">
        <g id="Transactions" transform="translate(-448.000000, -128.000000)" fill="#009245">
            <g id="Group-5" transform="translate(267.000000, 115.000000)">
                <path d="M187.939612,20 C187.952988,19.8279323 187.900699,19.6528245 187.769368,19.5214937 L182.344067,14.1053132 C182.105118,13.8663641 181.717206,13.8663641 181.477041,14.1053132 C181.238092,14.3448704 181.238092,14.7321747 181.477041,14.9711239 L186.515037,20 L181.477041,25.0294842 C181.238092,25.2678253 181.238092,25.6557376 181.477041,25.8946868 C181.717206,26.1336359 182.105118,26.1336359 182.344067,25.8946868 L187.769368,20.4791143 C187.900699,20.3477835 187.952988,20.1726757 187.939612,20 L187.939612,20 Z M195.125718,19.5214937 L188.474663,12.8813829 C188.235714,12.6424338 187.847194,12.6424338 187.607637,12.8813829 C187.368079,13.1209401 187.368079,13.5082444 187.607637,13.7471935 L193.870779,20 L187.607637,26.2534145 C187.368079,26.4923636 187.368079,26.8796679 187.607637,27.1186171 C187.847194,27.3575662 188.235714,27.3575662 188.474663,27.1186171 L195.125718,20.4791143 C195.256441,20.3477835 195.30873,20.1726757 195.295962,20 C195.30873,19.8279323 195.256441,19.6528245 195.125718,19.5214937 L195.125718,19.5214937 Z" id="Fill-118" transform="translate(188.297829, 20.000000) rotate(-270.000000) translate(-188.297829, -20.000000) "></path>
            </g>
        </g>
    </g>
</svg>