<?xml version="1.0" encoding="UTF-8"?>
<svg width="32px" height="30px" viewBox="0 0 32 30" version="1.1" xmlns="http://www.w3.org/2000/svg" xmlns:xlink="http://www.w3.org/1999/xlink">
    <!-- Generator: Sketch 46.2 (44496) - http://www.bohemiancoding.com/sketch -->
    <title>Fill 72</title>
    <desc>Created with Sketch.</desc>
    <defs></defs>
    <g id="Page-1" stroke="none" stroke-width="1" fill="none" fill-rule="evenodd">
        <g id="Web" transform="translate(-1124.000000, -942.000000)" fill="#FFFFFF">
            <path d="M1152,955.631676 L1140,969.897014 L1128,955.572893 C1126.565,953.586228 1126,952.244182 1126,950.406964 C1126,946.980613 1128.455,943.896997 1132,943.868104 C1134.916,943.844192 1138.222,946.811239 1140,949.047981 C1141.731,946.889948 1145.084,943.868104 1148,943.868104 C1151.451,943.868104 1154,946.980613 1154,950.406964 C1154,952.244182 1153.553,953.68586 1152,955.631676 L1152,955.631676 Z M1148,942 C1144.667,942 1142.145,943.948806 1140,945.985288 C1137.957,943.824265 1135.333,942 1132,942 C1127.306,942 1124,946.021155 1124,950.406964 C1124,952.75928 1124.967,954.453028 1126.026,956.04515 L1138.459,970.896324 C1139.854,972.367892 1140.118,972.367892 1141.513,970.896324 L1153.974,956.04515 C1155.22,954.453028 1156,952.75928 1156,950.406964 C1156,946.021155 1152.694,942 1148,942 L1148,942 Z" id="Fill-72"></path>
        </g>
    </g>
</svg>