<?xml version="1.0" encoding="UTF-8"?>
<svg width="32px" height="32px" viewBox="0 0 32 32" version="1.1" xmlns="http://www.w3.org/2000/svg" xmlns:xlink="http://www.w3.org/1999/xlink">
    <!-- Generator: Sketch 46.2 (44496) - http://www.bohemiancoding.com/sketch -->
    <title>Fill 205</title>
    <desc>Created with Sketch.</desc>
    <defs></defs>
    <g id="Page-1" stroke="none" stroke-width="1" fill="none" fill-rule="evenodd">
        <g id="Web" transform="translate(-831.000000, -941.000000)" fill="#FFFFFF">
            <path d="M859,962 C859,963.229 858.206,964 857,964 L837,964 C835.794,964 835,963.229 835,962 C835,962 834.985,944.257 834.985,942.99 L859.015,942.99 C859.015,945.007 859,962 859,962 L859,962 Z M831,941 L831,943 L833,943 L833,962 C833,964.37 834.644,966 837,966 L843,966 L839,973 L842.012,972.987 L846,966 L848,966 L851.988,972.987 L855,973 L851,966 L857,966 C859.356,966 861,964.37 861,962 L861,943 L863,943 L863,941 L831,941 L831,941 Z M841,961 C841.553,961 842,960.553 842,960 L842,956 C842,955.448 841.553,955 841,955 C840.447,955 840,955.448 840,956 L840,960 C840,960.553 840.447,961 841,961 L841,961 Z M853,961 C853.553,961 854,960.553 854,960 L854,951 C854,950.448 853.553,950 853,950 C852.447,950 852,950.448 852,951 L852,960 C852,960.553 852.447,961 853,961 L853,961 Z M847,961 C847.553,961 848,960.553 848,960 L848,948 C848,947.448 847.553,947 847,947 C846.447,947 846,947.448 846,948 L846,960 C846,960.553 846.447,961 847,961 L847,961 Z" id="Fill-205"></path>
        </g>
    </g>
</svg>