<?xml version="1.0" encoding="UTF-8"?>
<svg width="28px" height="32px" viewBox="0 0 28 32" version="1.1" xmlns="http://www.w3.org/2000/svg" xmlns:xlink="http://www.w3.org/1999/xlink">
    <!-- Generator: Sketch 46.2 (44496) - http://www.bohemiancoding.com/sketch -->
    <title>Fill 86</title>
    <desc>Created with Sketch.</desc>
    <defs></defs>
    <g id="Page-1" stroke="none" stroke-width="1" fill="none" fill-rule="evenodd">
        <g id="Web" transform="translate(-539.000000, -941.000000)" fill="#FFFFFF">
            <path d="M560,947 L546,947 C545.447,947 545,947.448 545,948 C545,948.553 545.447,949 546,949 L560,949 C560.553,949 561,948.553 561,948 C561,947.448 560.553,947 560,947 L560,947 Z M560,952.978 L546,952.978 C545.447,952.978 545,953.425 545,953.978 C545,954.529 545.447,954.978 546,954.978 L560,954.978 C560.553,954.978 561,954.529 561,953.978 C561,953.425 560.553,952.978 560,952.978 L560,952.978 Z M560,959 L546,959 C545.447,959 545,959.447 545,960 C545,960.553 545.447,961 546,961 L560,961 C560.553,961 561,960.553 561,960 C561,959.447 560.553,959 560,959 L560,959 Z M565,971.027 L561,968 L557,971.188 L553,968 L549,971.188 L545,968 L541,971.059 L541,945 C541,943.896 541.896,943 543,943 L563,943 C564.104,943 565,943.896 565,945 L565,971.027 L565,971.027 Z M563,941 L543,941 C540.791,941 539,942.791 539,945 L539,973 L540.867,973 L545,970 L549,973 L553,970 L557,973 L561,970 L565.134,973 L567,973 L567,945 C567,942.791 565.209,941 563,941 L563,941 Z" id="Fill-86"></path>
        </g>
    </g>
</svg>