<?xml version="1.0" encoding="UTF-8"?>
<svg width="32px" height="28px" viewBox="0 0 32 28" version="1.1" xmlns="http://www.w3.org/2000/svg" xmlns:xlink="http://www.w3.org/1999/xlink">
    <!-- Generator: Sketch 46.2 (44496) - http://www.bohemiancoding.com/sketch -->
    <title>Fill 116</title>
    <desc>Created with Sketch.</desc>
    <defs></defs>
    <g id="Page-1" stroke="none" stroke-width="1" fill="none" fill-rule="evenodd">
        <g id="Pay-4" transform="translate(-435.000000, -613.000000)" fill="#F5A623">
            <path d="M466.691029,625 L464.862029,625 C463.889029,618.218 458.072029,613 451.021029,613 C445.572029,613 440.862029,616.12 438.548029,620.664 L442.303029,622.108 C444.017029,619.062 447.276029,617 451.021029,617 C455.859029,617 459.894029,620.436 460.820029,625 L458.410029,625 C458.100029,625.301 457.804029,625.486 458.248029,626.007 L461.978029,629.801 C462.288029,630.101 462.789029,630.101 463.097029,629.801 L466.853029,626.007 C467.162029,625.706 467.000029,625.301 466.691029,625 L466.691029,625 Z M451.021029,637 C446.543029,637 442.754029,634.057 441.480029,630 L443.668029,630 C443.978029,629.7 444.139029,629.294 443.831029,628.994 L440.075029,625.199 C439.766029,624.899 439.265029,624.899 438.956029,625.199 L435.225029,628.994 C434.782029,629.515 435.078029,629.7 435.387029,630 L437.220029,630 C438.305029,635.933 444.062029,641 451.021029,641 C456.114029,641 460.558029,638.271 463.008029,634.205 L459.223029,632.711 C457.417029,635.302 454.418029,637 451.021029,637 L451.021029,637 Z" id="Fill-116"></path>
        </g>
    </g>
</svg>