<?xml version="1.0" encoding="UTF-8"?>
<svg width="18px" height="18px" viewBox="0 0 18 18" version="1.1" xmlns="http://www.w3.org/2000/svg" xmlns:xlink="http://www.w3.org/1999/xlink">
    <!-- Generator: Sketch 46.2 (44496) - http://www.bohemiancoding.com/sketch -->
    <title>Fill 19</title>
    <desc>Created with Sketch.</desc>
    <defs></defs>
    <g id="Page-1" stroke="none" stroke-width="1" fill="none" fill-rule="evenodd">
        <g id="Transactions" transform="translate(-725.000000, -126.000000)" fill="#009245">
            <path d="M732.573202,139.757424 C729.034165,139.757424 726.165238,136.938418 726.165238,133.455455 C726.165238,129.972491 729.034165,127.147859 732.573202,127.147859 C736.11224,127.147859 738.98173,129.972491 738.98173,133.455455 C738.98173,136.938418 736.11224,139.757424 732.573202,139.757424 L732.573202,139.757424 Z M742.829097,143.020944 L738.182211,138.446389 C739.39865,137.124101 740.146405,135.379806 740.146405,133.455455 C740.146405,129.336668 736.755906,126 732.573202,126 C728.390499,126 725,129.336668 725,133.455455 C725,137.568615 728.390499,140.905283 732.573202,140.905283 C734.380418,140.905283 736.037971,140.280713 737.339931,139.239762 L742.005384,143.831197 C742.233255,144.056268 742.601788,144.056268 742.829097,143.831197 C743.056968,143.611754 743.056968,143.246014 742.829097,143.020944 L742.829097,143.020944 Z" id="Fill-19"></path>
        </g>
    </g>
</svg>