<?xml version="1.0" encoding="UTF-8"?>
<svg width="63px" height="60px" viewBox="0 0 63 60" version="1.1" xmlns="http://www.w3.org/2000/svg" xmlns:xlink="http://www.w3.org/1999/xlink">
    <!-- Generator: Sketch 46.2 (44496) - http://www.bohemiancoding.com/sketch -->
    <title>Group 2</title>
    <desc>Created with Sketch.</desc>
    <defs>
        <polygon id="path-1" points="0 0.0662076749 35 0.0662076749 35 34.9809041 0 34.9809041"></polygon>
        <polygon id="path-3" points="0.0650833066 0.00265036869 22.9908005 0.00265036869 22.9908005 23 0.0650833066 23"></polygon>
    </defs>
    <g id="Page-1" stroke="none" stroke-width="1" fill="none" fill-rule="evenodd">
        <g id="Main" transform="translate(-150.000000, -1247.000000)">
            <g id="Group-2" transform="translate(150.000000, 1247.000000)">
                <g id="Group-3">
                    <mask id="mask-2" fill="white">
                        <use xlink:href="#path-1"></use>
                    </mask>
                    <g id="Clip-2"></g>
                    <path d="M17.5791855,11.1459041 C21.0253394,11.1459041 23.8317534,13.9459831 23.8317534,17.3843578 C23.8317534,20.8226535 21.0253394,23.6228115 17.5791855,23.6228115 C14.1330317,23.6228115 11.3266176,20.8226535 11.3266176,17.3843578 C11.3266176,13.9459831 14.1330317,11.1459041 17.5791855,11.1459041 L17.5791855,11.1459041 Z M3.87700226,21.353816 C4.18725113,22.41543 4.61809955,23.4394368 5.16281674,24.4002381 L3.6110181,26.3531275 C3.10399321,26.9916603 3.16124434,27.9018183 3.7313009,28.4770666 L6.4044457,31.1442562 C6.98099548,31.7194255 7.89321267,31.7700688 8.53319005,31.2641885 L10.4778281,29.7286129 C11.4788122,30.3034661 12.5428281,30.7523036 13.6514253,31.0683307 L13.9428281,33.5650237 C14.0380882,34.373895 14.7223303,34.9809041 15.5330317,34.9809041 L19.3150905,34.9809041 C20.1257919,34.9809041 20.8100339,34.373895 20.9049774,33.5650237 L21.1837104,31.1568183 C22.3745814,30.8472698 23.5150113,30.3858702 24.5855204,29.7853397 L26.46681,31.270667 C27.1067873,31.7763104 28.0190045,31.7194255 28.5955543,31.1507348 L31.2686991,28.4832291 C31.8452489,27.9079808 31.8960068,26.9978228 31.3889819,26.3596061 L29.9259502,24.5076084 C30.534095,23.4583194 31.0092081,22.3398205 31.3259502,21.1705203 L33.5808371,20.9112201 C34.3918552,20.816491 35,20.1338725 35,19.3249221 L35,15.5514797 C35,14.7425293 34.3918552,14.0599108 33.5808371,13.9651027 L31.3574661,13.7058815 C31.0533937,12.5492223 30.5971267,11.4431275 30.0144005,10.4064007 L31.3828054,8.68097178 C31.8895136,8.04267607 31.8325792,7.13259707 31.2625226,6.55734876 L28.5955543,3.89640068 C28.0190045,3.32115237 27.1067873,3.27050903 26.46681,3.77631038 L24.7881561,5.10370316 C23.6987217,4.46517043 22.5329525,3.97848871 21.3104864,3.64982054 L21.0571719,1.48203273 C20.9619118,0.672845372 20.2776697,0.0661523702 19.4669683,0.0661523702 L15.6849095,0.0661523702 C14.8742081,0.0661523702 14.1899661,0.672845372 14.0950226,1.48203273 L13.8417081,3.64982054 C12.5874095,3.98496727 11.3900452,4.4905316 10.2752715,5.15403047 L8.53319005,3.77631038 C7.89321267,3.27050903 6.98099548,3.32763093 6.4044457,3.89640068 L3.7313009,6.56351129 C3.15475113,7.13875959 3.10399321,8.04891761 3.6110181,8.68745034 L5.0678733,10.526491 C4.48514706,11.5757799 4.04154977,12.6945158 3.75014706,13.8574165 L1.4191629,14.1231163 C0.608144796,14.2179244 0,14.9005429 0,15.7094932 L0,19.4829357 C0,20.291886 0.608144796,20.9745045 1.4191629,21.0692336 L3.87700226,21.353816 Z" id="Fill-1" fill="#FEFEFE" mask="url(#mask-2)"></path>
                </g>
                <path d="M48.9946981,38.8416916 C46.1601907,39.0755349 43.6577324,37.03789 43.4214437,34.3047943 C43.1789305,31.5716216 45.2921228,29.1586272 48.1265504,28.9307858 C50.9610578,28.6969426 53.4635161,30.7345105 53.6998048,33.4676832 C53.942318,36.2007789 51.8294449,38.6138503 48.9946981,38.8416916 M58.8837135,24.2153704 L56.8728252,22.578083 C56.2534151,22.073154 55.340659,22.0977772 54.7530893,22.6334082 L53.6424284,23.6366488 C52.703817,23.1997413 51.707909,22.8919516 50.6801607,22.7132797 L50.367503,21.2360429 C50.2079024,20.4725705 49.4735,19.9431722 48.6692724,20.0048841 L46.0455176,20.2204138 C45.2409708,20.2880506 44.6091119,20.9219435 44.5835758,21.7037294 L44.5324238,23.2057432 C43.5236679,23.5567774 42.5726077,24.0367754 41.7042206,24.6400433 L40.3762634,23.7905437 C39.6997961,23.3596381 38.7995687,23.4828309 38.2762382,24.0800968 L36.5779277,26.0314067 C36.054278,26.6283648 36.0798141,27.5087973 36.6353042,28.0750535 L37.7974363,29.2692006 C37.3950032,30.1433234 37.1078817,31.0606906 36.9417374,32.0023733 L35.2818109,32.3287073 C34.4903513,32.4826022 33.9414049,33.1905185 34.0050058,33.9663025 L34.2285265,36.496257 C34.298671,37.2717332 34.9563852,37.8813108 35.7671565,37.9060109 L37.5611475,37.9612591 C37.8865732,38.7859817 38.3142231,39.5678445 38.831409,40.300384 L37.8291968,41.7593842 C37.3821554,42.4118215 37.5099955,43.2799424 38.1290864,43.7845636 L40.1402939,45.4221588 C40.7593848,45.926857 41.6723802,45.9022338 42.2597106,45.3666027 L43.5748199,44.1786114 C44.4367432,44.5663495 45.343195,44.8559027 46.2752628,45.0280341 L46.6389926,46.7639681 C46.7985933,47.5274404 47.5330754,48.0567618 48.3373031,47.9951269 L50.9610578,47.779905 C51.7656047,47.7118834 52.3974636,47.0780675 52.4229997,46.2962816 L52.4806953,44.5971285 C53.4382992,44.2709483 54.344751,43.8276542 55.1810584,43.2799424 L56.630312,44.2033115 C57.3066996,44.6339863 58.206927,44.5111012 58.7303373,43.9139122 L60.4285679,41.974914 C60.9519782,41.377648 60.9266815,40.4975233 60.3711915,39.9312672 L59.2029148,38.7370431 C59.6305647,37.8626125 59.9435416,36.9392434 60.1221347,35.991328 L61.7181411,35.6775364 C62.5099199,35.5236415 63.0588663,34.8157252 62.9949462,34.0399412 L62.7715053,31.5100636 C62.7013609,30.7345105 62.043886,30.1250099 61.2331148,30.1002328 L59.6305647,30.0510634 C59.2985954,29.1523175 58.8518732,28.3028948 58.2964629,27.5147992 L59.1710745,26.2469364 C59.6305647,25.5944222 59.5031236,24.7202225 58.8837135,24.2153704" id="Fill-4" fill="#FEFEFE"></path>
                <g id="Group-8" transform="translate(12.000000, 37.000000)">
                    <mask id="mask-4" fill="white">
                        <use xlink:href="#path-3"></use>
                    </mask>
                    <g id="Clip-7"></g>
                    <path d="M11.6275179,7.3066322 C13.8839267,7.33165932 15.6929233,9.19676441 15.6680584,11.460822 C15.6431159,13.7248797 13.7843118,15.5400085 11.527903,15.5150593 C9.27149426,15.4900322 7.46249764,13.625239 7.4873625,11.3608695 C7.51230507,9.09681186 9.37110912,7.28168305 11.6275179,7.3066322 L11.6275179,7.3066322 Z M1.47635912,9.09073051 C0.693271284,9.17173729 0.0901429054,9.8329678 0.0837712838,10.6251034 L0.0652780405,12.2029814 C0.0528456081,12.9951169 0.63709223,13.668822 1.42049088,13.7686966 L2.57662939,13.9182356 C2.7694098,14.6229712 3.04284561,15.2966763 3.39709223,15.9328797 L2.65130169,16.8559983 C2.15384899,17.4736458 2.19114628,18.3592627 2.74446723,18.9269339 L3.8447375,20.0557271 C4.39813615,20.6233203 5.28076115,20.6857712 5.90844358,20.1991068 L6.8348152,19.4818966 C7.4873625,19.8686864 8.1772848,20.1743915 8.89852128,20.3863814 L9.02292331,21.5839407 C9.10365642,22.3696831 9.76265304,22.974778 10.5521125,22.9811712 L12.1246598,22.9998051 C12.9141193,23.0122797 13.5855483,22.4259746 13.6850855,21.6399203 L13.8280584,20.5048898 C14.6111463,20.3114559 15.3572476,20.0184593 16.065974,19.6316695 L16.9361666,20.3364831 C17.5514166,20.8353881 18.4340416,20.7981203 18.9997949,20.2429237 L20.1250078,19.1389237 C20.6907611,18.5837271 20.7526902,17.6981102 20.2679807,17.0679881 L19.6029233,16.201161 C20.0129605,15.5150593 20.3302206,14.7852966 20.5477882,14.0181102 L21.5795247,13.9121542 C22.3629233,13.8308356 22.9656632,13.1696831 22.9721125,12.3777814 L22.9906057,10.7995915 C23.0030382,10.0074559 22.4187139,9.33375085 21.635626,9.23418814 L20.6285213,9.10320508 C20.4358186,8.34217797 20.1498726,7.60602203 19.776822,6.92015424 L20.4048152,6.14665254 C20.9020348,5.52900508 20.8646598,4.64331017 20.3113389,4.07595085 L19.2110686,2.94692373 C18.6580584,2.37925254 17.7754334,2.31680169 17.1474402,2.80354407 L16.395278,3.38337797 C15.6865517,2.95308305 14.9283287,2.62258475 14.1324976,2.39812034 L14.0332713,1.41871017 C13.9522274,0.632967797 13.2932307,0.0277949153 12.5040821,0.0217135593 L10.931224,0.00284576271 C10.1417645,-0.00962881356 9.47033547,0.576598305 9.37110912,1.36265254 L9.24662939,2.33574746 C8.42616655,2.54765932 7.63670709,2.87207627 6.90311588,3.29628983 L6.12608885,2.66008644 C5.51083885,2.16086949 4.62790304,2.19837119 4.06238277,2.75364576 L2.93087601,3.86364915 C2.36535574,4.41884576 2.30319358,5.30454068 2.78790304,5.93466271 L3.45319358,6.79533051 C3.06771047,7.48151017 2.76303818,8.21119492 2.56419696,8.97838136 L1.47635912,9.09073051 Z" id="Fill-6" fill="#FEFEFE" mask="url(#mask-4)"></path>
                </g>
            </g>
        </g>
    </g>
</svg>