<?xml version="1.0" encoding="UTF-8" standalone="no"?>
<svg width="44px" height="29px" viewBox="0 0 44 29" version="1.1" xmlns="http://www.w3.org/2000/svg" xmlns:xlink="http://www.w3.org/1999/xlink">
    <!-- Generator: Sketch 48.2 (47327) - http://www.bohemiancoding.com/sketch -->
    <title>rss</title>
    <desc>Created with Sketch.</desc>
    <defs>
        <path d="M1135.39332,966.71158 C1135.39332,969.080041 1133.41847,971.000042 1130.98234,971.000042 C1128.54621,971.000042 1126.57142,969.080041 1126.57142,966.71158 C1126.57142,964.343119 1128.54628,962.423118 1130.98241,962.423118 C1133.41854,962.423118 1135.39332,964.343186 1135.39332,966.71158 Z M1147.49235,969.875644 C1146.91695,959.52296 1138.38777,951.220255 1127.72794,950.660232 C1127.09875,950.627152 1126.57142,951.11867 1126.57142,951.731259 L1126.57142,954.950167 C1126.57142,955.513672 1127.01844,955.986239 1127.5968,956.022802 C1135.29951,956.51057 1141.47376,962.498386 1141.9765,970.003077 C1142.01418,970.565376 1142.50024,970.999975 1143.07978,970.999975 L1146.39065,970.999975 C1147.02081,971.000042 1147.52637,970.487363 1147.49235,969.875644 Z M1157.42786,969.89493 C1156.84971,954.237332 1143.89171,941.56554 1127.70811,941.000696 C1127.08614,940.978999 1126.57142,941.467504 1126.57142,942.072527 L1126.57142,945.291368 C1126.57142,945.868935 1127.0422,946.339024 1127.63579,946.36273 C1140.80372,946.887663 1151.37284,957.165146 1151.9127,969.965309 C1151.93702,970.542408 1152.42054,971.000109 1153.01467,971.000109 L1156.32548,971.000109 C1156.94772,971.000042 1157.45018,970.499617 1157.42786,969.89493 Z" id="path-1"></path>
    </defs>
    <g id="Web" stroke="none" stroke-width="1" fill="none" fill-rule="evenodd" transform="translate(-1120.000000, -947.000000)">
        <mask id="mask-2" fill="white">
            <use xlink:href="#path-1"></use>
        </mask>
        <use id="rss" fill="#FFFFFF" fill-rule="nonzero" transform="translate(1142.000000, 956.000054) rotate(-45.000000) translate(-1142.000000, -956.000054) " xlink:href="#path-1"></use>
    </g>
</svg>