<?xml version="1.0" encoding="UTF-8" standalone="no"?>
<svg width="89px" height="117px" viewBox="0 0 89 117" version="1.1" xmlns="http://www.w3.org/2000/svg" xmlns:xlink="http://www.w3.org/1999/xlink">
    <!-- Generator: Sketch 48.2 (47327) - http://www.bohemiancoding.com/sketch -->
    <title>Page 1</title>
    <desc>Created with Sketch.</desc>
    <defs></defs>
    <g id="Web" stroke="none" stroke-width="1" fill="none" fill-rule="evenodd" transform="translate(-778.000000, -1147.000000)">
        <g id="Group-6" transform="translate(754.000000, 1128.000000)" fill="#FFFFFF">
            <g id="Page-1" transform="translate(24.000000, 19.000000)">
                <path d="M24.0004702,87.2345385 L3.31915832,98.4485877 C2.10553384,99.1064024 1.01484116,99.9150203 0,100.79644 C12.0577776,110.905465 27.6230346,117 44.6294707,117 C61.5103594,117 76.9762248,110.996467 89,101.027845 C87.8909983,100.094424 86.6878361,99.2572057 85.356511,98.596791 L63.2078643,87.5933465 C60.3464308,86.1685149 58.5416875,83.2642503 58.5416875,80.0817796 L58.5416875,71.4443877 C59.1615776,70.739772 59.8730126,69.8375519 60.6341435,68.7663281 C63.6551268,64.530834 65.9385194,59.8689304 67.5183237,54.9756217 C70.3588327,54.1046023 72.4512887,51.4967444 72.4512887,48.3974755 L72.4512887,39.1776706 C72.4512887,37.1496255 71.5436859,35.3373853 70.1338937,34.0685571 L70.1338937,20.7406609 C70.1338937,20.7406609 72.8880889,0 44.6320863,0 C16.3760837,0 19.1302789,20.7406609 19.1302789,20.7406609 L19.1302789,34.0685571 C17.7178711,35.3373853 16.8128839,37.1496255 16.8128839,39.1776706 L16.8128839,48.3974755 C16.8128839,50.8259295 18.0971288,52.963177 20.0195727,54.1982044 C22.3369677,64.2266273 28.4050901,71.4443877 28.4050901,71.4443877 L28.4050901,79.8685749 C28.4024745,82.9392431 26.7128163,85.7655059 24.0004702,87.2345385" id="Fill-1"></path>
            </g>
        </g>
    </g>
</svg>