<?xml version="1.0" encoding="UTF-8"?>
<svg width="16px" height="16px" viewBox="0 0 16 16" version="1.1" xmlns="http://www.w3.org/2000/svg" xmlns:xlink="http://www.w3.org/1999/xlink">
    <!-- Generator: Sketch 46.2 (44496) - http://www.bohemiancoding.com/sketch -->
    <title>icon_dribbble</title>
    <desc>Created with Sketch.</desc>
    <defs></defs>
    <g id="Page-1" stroke="none" stroke-width="1" fill="none" fill-rule="evenodd">
        <g id="Web" transform="translate(-727.000000, -2628.000000)" fill="#CCCCCC">
            <g id="social" transform="translate(657.000000, 2628.000000)">
                <path d="M78,0 C73.5815556,0 70,3.58155556 70,8 C70,12.4184444 73.5815556,16 78,16 C82.4175556,16 85.9991111,12.4184444 86,8 C85.9991111,3.58155556 82.4175556,0 78,0 L78,0 Z M82.902,4.14755556 C83.6822222,5.13888889 84.1711111,6.36622222 84.2326667,7.70666667 C83.3288889,7.51466667 82.4757778,7.42177778 81.6804444,7.42177778 L81.6744444,7.42177778 C81.0337778,7.42177778 80.4331111,7.48 79.8662222,7.57977778 C79.7282222,7.24311111 79.5893333,6.91844444 79.4488889,6.60844444 C80.71,6.05466667 81.9211111,5.26644444 82.902,4.14755556 L82.902,4.14755556 Z M78,1.75866667 C79.4722222,1.75866667 80.822,2.27333333 81.8915556,3.13022222 C81.0737778,4.11022222 79.9931111,4.81955556 78.8264444,5.32022222 C78.0068889,3.73533333 77.2144444,2.60066667 76.6735556,1.908 C77.1015556,1.81244444 77.5442222,1.75866667 78,1.75866667 L78,1.75866667 Z M75.2431111,2.40977778 C75.6762222,2.92111111 76.5433333,4.04688889 77.4695556,5.80377778 C75.586,6.36466667 73.6884444,6.49644444 72.5408889,6.49644444 C72.5077778,6.49644444 72.4757778,6.49644444 72.4435556,6.49555556 L72.4426667,6.49555556 C72.2491111,6.49555556 72.0833333,6.49311111 71.9444444,6.48866667 C72.3924444,4.69622222 73.6197778,3.21266667 75.2431111,2.40977778 L75.2431111,2.40977778 Z M71.7577778,8 C71.7577778,7.97133333 71.7595556,7.94088889 71.7613333,7.91066667 C71.9393333,7.91666667 72.1675556,7.92266667 72.4426667,7.92266667 L72.4444444,7.92266667 C73.6988889,7.914 75.8897778,7.81 78.1093333,7.10844444 C78.2308889,7.37333333 78.3497778,7.64933333 78.4686667,7.93488889 C76.9862222,8.43066667 75.8186667,9.22044444 74.9548889,10.0068889 C74.1242222,10.7646667 73.5615556,11.5146667 73.2335556,12.0155556 C72.3151111,10.928 71.7586667,9.53044444 71.7577778,8 L71.7577778,8 Z M78,14.2422222 C76.6102222,14.2422222 75.3306667,13.7828889 74.2915556,13.0122222 C74.5131111,12.6484444 74.9862222,11.9504444 75.7395556,11.2291111 C76.5146667,10.4862222 77.5851111,9.72133333 78.9826667,9.26555556 C79.4582222,10.5973333 79.888,12.1197778 80.2153333,13.8333333 C79.5251111,14.0964444 78.7804444,14.2422222 78,14.2422222 L78,14.2422222 Z M81.5322222,13.1337778 C81.2153333,11.5842222 80.8168889,10.1866667 80.3802222,8.93933333 C80.7855556,8.88111111 81.2108889,8.84888889 81.6606667,8.84888889 L81.6788889,8.84888889 C82.4226667,8.84888889 83.2413333,8.94088889 84.1275556,9.14244444 C83.8211111,10.7933333 82.8655556,12.2144444 81.5322222,13.1337778 L81.5322222,13.1337778 Z" id="icon_dribbble"></path>
            </g>
        </g>
    </g>
</svg>