<?xml version="1.0" encoding="UTF-8"?>
<svg width="16px" height="16px" viewBox="0 0 16 16" version="1.1" xmlns="http://www.w3.org/2000/svg" xmlns:xlink="http://www.w3.org/1999/xlink">
    <!-- Generator: Sketch 46.2 (44496) - http://www.bohemiancoding.com/sketch -->
    <title>icon_facebook</title>
    <desc>Created with Sketch.</desc>
    <defs></defs>
    <g id="Page-1" stroke="none" stroke-width="1" fill="none" fill-rule="evenodd">
        <g id="Web" transform="translate(-692.000000, -2628.000000)" fill="#CCCCCC">
            <g id="social" transform="translate(657.000000, 2628.000000)">
                <path d="M51,3 C51,1.26555556 49.7353333,0 48,0 L38,0 C36.2646667,0 35,1.26555556 35,3 L35,13 C35,14.7344444 36.2646667,16 38,16 L43,16 L43,10 L41,10 L41,7 L43,7 L43,6 C43,4.45822222 44.3455556,2.84466667 46,3 L48,3 L48,6 L46,6 C45.764,5.51133333 45.4886667,5.79777778 45,6 L45,7 L48,7 L48,10 L45,10 L45,16 L48,16 C49.7353333,16 51,14.7344444 51,13 L51,3 Z" id="icon_facebook"></path>
            </g>
        </g>
    </g>
</svg>