<?xml version="1.0" encoding="UTF-8"?>
<svg width="98px" height="93px" viewBox="0 0 98 93" version="1.1" xmlns="http://www.w3.org/2000/svg" xmlns:xlink="http://www.w3.org/1999/xlink">
    <!-- Generator: Sketch 46.2 (44496) - http://www.bohemiancoding.com/sketch -->
    <title>Page 1</title>
    <desc>Created with Sketch.</desc>
    <defs>
        <polygon id="path-1" points="0 0.104040632 54 0.104040632 54 54.9699921 0 54.9699921"></polygon>
        <polygon id="path-3" points="0.101869523 0.00414840317 35.9856007 0.00414840317 35.9856007 36 0.101869523 36"></polygon>
    </defs>
    <g id="Page-1" stroke="none" stroke-width="1" fill="none" fill-rule="evenodd">
        <g id="Web" transform="translate(-1133.000000, -1126.000000)">
            <g id="post_preview_medium_light" transform="translate(711.000000, 1056.000000)">
                <g id="Page-1" transform="translate(422.000000, 70.000000)">
                    <g id="Group-3">
                        <mask id="mask-2" fill="white">
                            <use xlink:href="#path-1"></use>
                        </mask>
                        <g id="Clip-2"></g>
                        <path d="M27.1221719,17.5149921 C32.439095,17.5149921 36.768991,21.9151163 36.768991,27.3182765 C36.768991,32.7213126 32.439095,37.1215609 27.1221719,37.1215609 C21.8052489,37.1215609 17.4753529,32.7213126 17.4753529,27.3182765 C17.4753529,21.9151163 21.8052489,17.5149921 27.1221719,17.5149921 L27.1221719,17.5149921 Z M5.98166063,33.5559966 C6.46033032,35.2242472 7.12506787,36.8334007 7.96548869,38.3432314 L5.57128507,41.4120576 C4.7890181,42.4154661 4.87734842,43.8457144 5.75686425,44.7496761 L9.8811448,48.940974 C10.7706787,49.8448115 12.1780995,49.9243939 13.1654932,49.1294391 L16.1657919,46.7163916 C17.7101674,47.6197325 19.3517919,48.3250485 21.0621991,48.8216625 L21.5117919,52.7450372 C21.6587647,54.0161208 22.7144525,54.9699921 23.9652489,54.9699921 L29.8004253,54.9699921 C31.0512217,54.9699921 32.1069095,54.0161208 32.2533937,52.7450372 L32.6834389,48.9607144 C34.5207828,48.474281 36.2803032,47.7492246 37.9319457,46.8055339 L40.8345068,49.1396196 C41.8219005,49.934202 43.2293213,49.8448115 44.1188552,48.9511546 L48.2431357,44.75936 C49.1326697,43.8553984 49.2109819,42.4251501 48.4287149,41.4222381 L46.1714661,38.511956 C47.1097466,36.8630734 47.8427783,35.1054323 48.3314661,33.2679605 L51.8104344,32.8604887 C53.0617195,32.7116287 54,31.6389424 54,30.3677348 L54,24.4380395 C54,23.1668318 53.0617195,22.0941456 51.8104344,21.9451614 L48.3800905,21.5378138 C47.9109502,19.7202065 47.2069955,17.9820576 46.3079321,16.3529153 L48.4191855,13.6415271 C49.2009638,12.638491 49.1131222,11.2083668 48.2336063,10.3044052 L44.1188552,6.12291535 C43.2293213,5.21895372 41.8219005,5.13937133 40.8345068,5.93420203 L38.2445837,8.02010497 C36.5637421,7.01669639 34.7651267,6.25191084 32.8790362,5.73543228 L32.4882081,2.32890858 C32.3412353,1.05732844 31.2855475,0.103953725 30.0347511,0.103953725 L24.1995747,0.103953725 C22.9487783,0.103953725 21.8930905,1.05732844 21.7466063,2.32890858 L21.3557783,5.73543228 C19.4205747,6.26209142 17.5732127,7.05654966 15.853276,8.09919074 L13.1654932,5.93420203 C12.1780995,5.13937133 10.7706787,5.22913431 9.8811448,6.12291535 L5.75686425,10.3140892 C4.86733032,11.2180508 4.7890181,12.6482991 5.57128507,13.6517077 L7.81900452,16.5416287 C6.91994118,18.1905113 6.23553394,19.9485248 5.78594118,21.7759402 L2.18956561,22.1934684 C0.938280543,22.3424526 0,23.4151388 0,24.6863465 L0,30.6160418 C0,31.8872494 0.938280543,32.9599357 2.18956561,33.1087957 L5.98166063,33.5559966 Z" id="Fill-1" fill="#FEFEFE" mask="url(#mask-2)"></path>
                    </g>
                    <path d="M76.267635,60.6083725 C71.8692614,60.9758405 67.9861365,57.7738271 67.6194816,53.4789624 C67.243168,49.1839768 70.5222595,45.3921284 74.9205093,45.034092 C79.3188828,44.6666241 83.2020077,47.8685165 83.5686627,52.1635021 C83.9449762,56.4583668 80.66638,60.2503361 76.267635,60.6083725 M91.6126589,37.6241535 L88.492315,35.0512733 C87.5311614,34.2578134 86.1148158,34.296507 85.2030696,35.1382129 L83.4796303,36.7147338 C82.0231644,36.0281649 80.4777899,35.5444954 78.883008,35.2637252 L78.3978495,32.9423532 C78.1501934,31.7426108 77.0106035,30.9106992 75.7626641,31.0076749 L71.6913205,31.3463645 C70.4428857,31.4526509 69.462415,32.4487684 69.42279,33.677289 L69.3434162,36.0375965 C67.7781054,36.5892216 66.3023222,37.3435043 64.954825,38.2914966 L62.8942019,36.9565686 C61.8445112,36.2794312 60.4476066,36.47302 59.635542,37.4115808 L57.0002327,40.4779248 C56.1876728,41.4160019 56.2272978,42.7995387 57.0892651,43.6893697 L58.8925735,45.5658867 C58.2681085,46.9395082 57.822575,48.3810853 57.564765,49.8608723 L54.989017,50.3736829 C53.76089,50.6155177 52.9090766,51.7279577 53.0077676,52.9470468 L53.3546101,56.9226896 C53.463455,58.1412951 54.484046,59.0992026 55.7421394,59.1380171 L58.5259185,59.2248358 C59.0308895,60.5208283 59.6944842,61.7494699 60.497014,62.9006035 L58.9418571,65.1933181 C58.2481721,66.2185766 58.4465447,67.5827666 59.407203,68.3757428 L62.5280422,70.9491067 C63.4887005,71.7422038 64.9054176,71.7035103 65.8167923,70.8618043 L67.8574792,68.9949608 C69.1949463,69.6042635 70.6015095,70.0592756 72.0478215,70.3297678 L72.6122299,73.0576641 C72.8598861,74.2574064 73.9995998,75.0891971 75.2475392,74.9923423 L79.3188828,74.6541364 C80.5673176,74.5472454 81.5477884,73.5512489 81.5874133,72.3227282 L81.676941,69.6526304 C83.1628781,69.1400616 84.5694413,68.4434565 85.8671596,67.5827666 L88.1160014,69.0337752 C89.1655683,69.7105499 90.5624729,69.5174448 91.3746613,68.5790049 L94.0098468,65.5320077 C94.8220352,64.5934469 94.7827817,63.2103938 93.9208144,62.3205628 L92.1079712,60.4439249 C92.7715659,59.0698197 93.2572197,57.618811 93.5343469,56.1292297 L96.0109086,55.6361286 C97.2395309,55.3942938 98.0913443,54.2818539 97.992158,53.0627647 L97.6454393,49.0872429 C97.5365944,47.8685165 96.5163749,46.9107299 95.2582815,46.8717945 L92.7715659,46.7945283 C92.2564411,45.3822132 91.5632515,44.0474061 90.701408,42.8089702 L92.0585638,40.8166144 C92.7715659,39.791235 92.5738125,38.4174925 91.6126589,37.6241535" id="Fill-4" fill="#FEFEFE"></path>
                    <g id="Group-8" transform="translate(19.000000, 57.000000)">
                        <mask id="mask-4" fill="white">
                            <use xlink:href="#path-3"></use>
                        </mask>
                        <g id="Clip-7"></g>
                        <path d="M18.1995932,11.4364678 C21.7313635,11.4756407 24.5628365,14.3949356 24.5239176,17.938678 C24.484877,21.4824203 21.5754446,24.3234915 18.0436743,24.2844407 C14.5119041,24.2452678 11.6804311,21.326461 11.71935,17.7822305 C11.7583905,14.2384881 14.667823,11.3974169 18.1995932,11.4364678 L18.1995932,11.4364678 Z M2.31082297,14.2289695 C1.08512027,14.3557627 0.141093243,15.3907322 0.13112027,16.6305966 L0.102174324,19.1003186 C0.0827148649,20.3401831 0.997187838,21.394678 2.22337703,21.5510034 L4.03298514,21.7850644 C4.33472838,22.8881288 4.76271486,23.9426237 5.31718784,24.9384203 L4.14986351,26.3833017 C3.37124189,27.3500542 3.42962027,28.7362373 4.29568784,29.6247661 L6.01785,31.3915729 C6.88403919,32.2799797 8.26553919,32.3777288 9.24799865,31.6159932 L10.6979716,30.4934034 C11.71935,31.0988136 12.7992284,31.5773085 13.9281203,31.9091186 L14.1228365,33.7835593 C14.2492014,35.0134169 15.2806743,35.960522 16.51635,35.9705288 L18.9777284,35.9996949 C20.2134041,36.0192203 21.2643365,35.1015254 21.4201338,33.8711797 L21.6439176,32.0946102 C22.8696203,31.7918441 24.0374311,31.3332407 25.1467419,30.7278305 L26.5087824,31.8310169 C27.4717824,32.6119119 28.8532824,32.5535797 29.7388095,31.6845763 L31.5000122,29.9565763 C32.3855392,29.0875729 32.4824716,27.7013898 31.7237959,26.7151119 L30.6828365,25.358339 C31.3246338,24.2844407 31.8212149,23.1422034 32.1617554,21.9413898 L33.7766473,21.7755458 C35.0028365,21.6482644 35.9462554,20.6134169 35.95635,19.3739186 L35.9852959,16.9037085 C36.0047554,15.6638441 35.0901608,14.6093492 33.8644581,14.4535119 L32.2881203,14.2484949 C31.9864986,13.057322 31.5389311,11.905078 30.9550257,10.8315458 L31.9379716,9.62084746 C32.7162284,8.65409492 32.6577284,7.26778983 31.7916608,6.37974915 L30.0694986,4.61257627 C29.2039176,3.72404746 27.8224176,3.62629831 26.8394716,4.38815593 L25.6621743,5.29572203 C24.5528635,4.62221695 23.3660797,4.10491525 22.1204311,3.75357966 L21.9651203,2.22058983 C21.8382689,0.990732203 20.8067959,0.0435050847 19.5716068,0.0339864407 L17.1097419,0.00445423729 C15.8740662,-0.0150711864 14.8231338,0.902501695 14.667823,2.13284746 L14.4729851,3.65595254 C13.1887824,3.98764068 11.9531068,4.49542373 10.804877,5.15941017 L9.58866081,4.16361356 C8.62566081,3.38223051 7.24367432,3.44092881 6.35851216,4.31005424 L4.58745811,6.04745085 C3.70229595,6.91645424 3.60499865,8.30275932 4.36367432,9.28903729 L5.40499865,10.6361695 C4.80163378,11.7101898 4.32475541,12.8523051 4.01352568,14.0531186 L2.31082297,14.2289695 Z" id="Fill-6" fill="#FEFEFE" mask="url(#mask-4)"></path>
                    </g>
                </g>
            </g>
        </g>
    </g>
</svg>