<?xml version="1.0" encoding="UTF-8"?>
<svg width="16px" height="13px" viewBox="0 0 16 13" version="1.1" xmlns="http://www.w3.org/2000/svg" xmlns:xlink="http://www.w3.org/1999/xlink">
    <!-- Generator: Sketch 46.2 (44496) - http://www.bohemiancoding.com/sketch -->
    <title>icon_twitter</title>
    <desc>Created with Sketch.</desc>
    <defs></defs>
    <g id="Page-1" stroke="none" stroke-width="1" fill="none" fill-rule="evenodd">
        <g id="Web" transform="translate(-657.000000, -2629.000000)" fill="#CCCCCC">
            <g id="social" transform="translate(657.000000, 2628.000000)">
                <path d="M14,3 C14.7938442,2.65031737 15.3113038,2.00644355 16,1 C14.925084,1.61511829 14.2226389,1.88892095 13,2 C12.8752441,1.40007694 12.0203109,1 11,1 C9.26677603,1 7.79689087,2.47028275 8,4 C7.79689087,4.5406809 7.82688852,4.78947875 8,5 C5.15084759,4.89199846 2.73478634,3.58799769 1,2 C0.829935161,2.08395845 0.668697758,2.65031737 1,3 C0.668697758,4.38940181 1.24990235,5.39584535 2,6 C1.59112569,5.96720523 1.08866495,5.81592614 1,6 L1,6 C0.644949613,7.20244278 1.77736114,8.53019812 3,9 C3.00226545,8.90652048 2.7097883,8.94527794 2,9 C2.20232794,8.94527794 1.99734396,8.92652433 2,9 C2.21232716,10.1917676 3.42223264,11.1381997 5,11 C3.73470823,12.0471244 2.31856886,12.5697249 1,13 C0.517459573,12.5697249 0.258729787,12.5547221 0,13 C1.45488634,13.4586459 3.17850168,14 5,14 C11.0678853,14 14.3688774,8.99903828 14,5 L14,4 C15.0038278,3.77428352 15.5600344,3.19792268 16,3 C15.4137958,2.79784574 14.7788454,2.97788036 14,3 Z" id="icon_twitter"></path>
            </g>
        </g>
    </g>
</svg>